<svg xmlns="http://www.w3.org/2000/svg" data-name="Слой 1" viewBox="0 0 50 50"><path d="M44.3 26.4h-5.8v3.3H33v-3.3H16.9v3.3h-5.4v-3.3H5.7a5.5 5.5 0 0 1-4.7-3V46h48V23.4a5.5 5.5 0 0 1-4.7 3zM13.6 43.2H3.8V33h.8v9.2h9zm32 0h-9.8v-1h9V33h.8zM30.3 8.6H19.6V4.3a.2.2 0 0 1 .2-.3h10.4a.2.2 0 0 1 .2.3v4.3zM16.1 26v2.8h-3.7v-5.4H16zM49 9.6V21c-.6 2.5-2.4 4.4-4.7 4.4h-5.8v-3.1H33v3.1H16.9v-3h-5.4v3H5.7c-2.3 0-4.2-1.9-4.7-4.4V9.6h48zM37.6 26v2.8H34v-5.4h3.7z" data-name="25,case,business,bag,carrier"/></svg>