<svg id="arrowexit" xmlns="http://www.w3.org/2000/svg" viewBox="0 0 64.9 46.2"><path d="M5.4 16l18-1.3a62.7 62.7 0 010-6.7c0-1 .8-2.5 1.7-2.8s2.5.5 3.4 1.2c5.7 4.7 11.2 9.6 17 14.3 2.2 2 1.4 3.4-.5 5L28.9 39.4c-1 .8-2.6 1.1-4 1.6-.5-1-1.4-2.2-1.5-3.4a46.7 46.7 0 01-.1-6.2L5.4 30.1z"/><path d="M59.4 23v10c-.2 6.2-3.7 9-11 9.3a79.8 79.8 0 01-8.7-.1c-1 0-1.8-1.2-2.7-1.8 1-.7 1.7-1.8 2.7-1.9 2.9-.3 5.8-.1 8.7-.1 4.4 0 6.4-2 6.4-5.6v-19c.1-4.2-2.1-6.2-7-6a79.4 79.4 0 01-8.7-.2 2.7 2.7 0 01-2-2c0-.5 1.3-1.6 2-1.7 4.5 0 9.1-.3 13.4.4a7.7 7.7 0 016.8 7.8v11z"/><path d="M38.7 40.6l10.5-.5c5-.1 7.6-2.3 7.6-6.5V13c0-5-2.3-7-8.2-7l-9.9-.5" fill="none" stroke="#000" stroke-linecap="round" stroke-linejoin="round" stroke-width="2"/></svg>