<svg id="icongirl" xmlns="http://www.w3.org/2000/svg" viewBox="0 0 997 708"><path d="M518 702h-33l-28-3c-54-6-104-23-149-53-43-29-77-66-98-114l-5-12a84 84 0 01-101-121c17-27 43-40 73-40l5-73-16-3v-3a352 352 0 0145-117C267 71 349 21 455 9l32-3h37l3 1c16 2 32 2 47 5 58 10 109 34 152 73 51 46 83 103 104 168l8 32-19 3 4 36v35a84 84 0 11-25 161l-1 1-2 4a234 234 0 01-37 63 319 319 0 01-211 111l-29 3zM222 389l-37 6c-13 2-24 7-34 17-8 9-13 20-11 32 3 23 21 39 44 39 19 0 37-1 54-10l2 4c27 69 73 119 141 149 61 25 124 28 188 15 86-18 149-67 191-144l12-25 4 2c17 5 35 10 53 8 12-1 24-4 32-14 15-19 14-54-16-67-15-7-31-9-47-11l-18-2c2-32-1-64-8-95a10 10 0 00-2 0l-132 10c-75 5-150 5-225 4-4 0-7-1-9-5-12-27-26-53-39-79l-3-5-3 5-44 71c-1 2-4 4-6 4l-68-4h-7c-8 31-11 63-12 95zM218 97l-28 33a172 172 0 00-25 49c-1 5-3 6-7 6a209 209 0 00-119 33l-4-6c-13-21-20-44-24-68-4-29-4-58 6-87l12-27c2-4 5-6 10-6 38-4 75 4 109 21a245 245 0 0166 48l4 4zM959 217l-35-17c-25-10-52-14-80-15-10-1-10-1-14-10-11-29-27-55-50-76a20 20 0 01-1-2 237 237 0 0150-41c35-22 73-34 115-33l12 1c7-1 11 3 14 9 11 20 17 43 18 66 2 36-4 71-20 104l-7 11a26 26 0 01-2 3z"/><path d="M326 405c0-21 17-39 37-39s38 18 38 40c0 21-17 38-37 38-21 0-38-17-38-39zM605 405c0-21 17-39 38-39 20 0 37 18 37 40 0 21-17 38-37 38-21 0-38-17-38-39z"/></svg>