<svg id="iconrazv" xmlns="http://www.w3.org/2000/svg" viewBox="0 0 396 529.4"><path d="M130 521c-9-4-12-10-11-20v-41a12 12 0 00-4-8l-93-93c-8-9-14-19-15-31-2-18 5-33 20-43 14-10 30-11 46-4 6 3 11 7 16 12l31 30c8-49 34-76 86-75 12 0 24 5 35 12a78 78 0 0125 27c6 11 9 23 9 37l14-14 24-23c18-15 43-14 62 2 16 14 19 41 7 60a65 65 0 01-9 10l-92 92a12 12 0 00-4 10v40c1 9-2 16-11 20zm117-31v-37c0-7 2-12 7-17l98-98a37 37 0 005-5c3-6 4-12 0-18s-8-9-15-9c-5 0-10 3-14 7l-82 82a20 20 0 01-15 7h-66a21 21 0 01-16-7l-81-81a55 55 0 00-4-4 17 17 0 00-27 9c-2 7 1 13 6 18l94 94c9 8 13 17 12 29v31zm-49-212a47 47 0 00-47 46c0 26 21 48 47 48s47-22 47-48a47 47 0 00-47-46zM201 9c6 2 10 6 12 12l24 48a7 7 0 006 5l56 8c6 0 11 4 14 10s-1 12-5 17l-41 39a7 7 0 00-2 7l10 56c1 6-1 12-6 16-6 4-11 3-17 0l-50-26a8 8 0 00-8 0l-49 26c-6 3-12 4-17 0-6-4-8-10-6-17l9-54c1-4 0-6-2-8l-41-39c-7-8-7-17-1-23a19 19 0 0110-4l55-8c4-1 6-2 7-6l23-46c3-6 6-11 12-13zm-3 49l-17 33c-3 7-7 10-14 11l-35 5 23 25c7 6 9 13 7 21l-6 34 32-17c7-3 13-4 20 0l28 15 4 2-6-37c-1-6 0-12 5-16l23-23 4-4-35-5c-9-1-14-5-17-13l-16-31z"/></svg>