<svg id="iconboy" xmlns="http://www.w3.org/2000/svg" viewBox="0 0 899.6 1000"><path d="M470 990h-37a45 45 0 00-5-1 370 370 0 01-108-22q-137-51-208-179a12 12 0 00-6-5 126 126 0 01-48-31C13 706 8 633 45 580a16 16 0 003-8v-56a14 14 0 00-3-7c-5-8-11-17-15-26-10-19-13-40-16-61-5-40-7-81-1-121 7-49 26-93 60-129 41-44 92-69 150-82 17-4 34-6 52-9a12 12 0 000-3l-8-38-10-30h2l11 3c34 8 64 23 87 49a7 7 0 005 1l72-9c43-4 86-4 128 4 34 6 67 17 96 37 23 16 43 35 55 62 2 4 4 5 8 4a119 119 0 0150 4c30 8 51 28 69 52 17 26 28 54 36 84 12 43 19 88 12 133-4 24-13 46-32 63a8 8 0 00-2 6v70a10 10 0 002 5c21 30 29 63 24 99-8 50-35 86-82 105a14 14 0 00-7 6q-48 90-135 143a379 379 0 01-159 56l-27 3zm43-609c-7 12-16 21-26 30-24 19-50 33-78 44l-17 7c0-33-19-56-37-80-11 6-17 15-22 25-9 20-12 41-14 62l-1 26c-31-10-53-30-67-59-12 43-31 73-49 93-14 16-30 30-50 38-2 0-3 2-3 4l-3 36a43 43 0 00-27 10 56 56 0 00-11 70c8 13 20 22 36 22l18-2a304 304 0 00277 202 302 302 0 00301-203c21 7 38 2 50-14 15-19 15-48 0-67-8-11-20-17-34-18v-6l-2-29c0-3-1-4-4-6-7-2-13-5-20-9-22-15-39-35-53-58a43 43 0 00-12-14c-35-24-61-56-82-92l-5-9c-29 16-41 45-56 71-13-16-16-39-9-74z"/><path d="M360 588a45 45 0 11-45-45 45 45 0 0145 45zM632 588a45 45 0 11-90 0 45 45 0 0190 0zM401 732v-21c8 0 15 1 21 5 5 3 5 8 0 10-6 3-13 4-21 6z"/></svg>