<svg id="iconbabies" xmlns="http://www.w3.org/2000/svg" viewBox="0 0 1600.1 1272.8"><path d="M1600 847v28l-1 3-4 26c-14 56-47 94-100 114-5 2-9 5-11 10a404 404 0 01-44 67 446 446 0 01-183 136c-58 23-118 35-179 40-52 3-103 2-154-4a554 554 0 01-125-32 14 14 0 00-9 0 714 714 0 01-322 23c-63-11-123-30-178-62a448 448 0 01-176-180 10 10 0 00-5-4A167 167 0 011 833c8-61 36-108 90-138a7 7 0 003-5 559 559 0 0121-110c24-77 62-145 119-203q92-95 219-128l47-10c-28-64-72-105-145-106V0c108 0 188 49 245 139 43-41 95-59 154-60v133c-29 2-56 9-75 33l4 2c41 12 81 26 119 45a8 8 0 008 0c29-14 58-24 89-30l40-8c-6-28-18-54-37-75-29-32-66-45-108-46V0c109 0 189 49 246 139 43-41 95-59 154-60v133c-34 1-61 14-81 42l25 6c110 27 200 85 269 175 58 77 90 165 99 261 0 2 2 4 3 5 46 26 74 65 86 116l5 30zM227 821h-65c-10 0-18 3-23 12-12 19-4 39 12 51 3 2 8 3 12 3h38c4 0 6 1 7 6 6 17 10 34 18 50a328 328 0 00205 170 536 536 0 00272 7c74-18 138-52 189-110 18-20 34-43 44-68 7-16 12-33 17-50 1-4 3-5 6-5h39c14 0 22-5 27-19a51 51 0 002-18c-1-19-12-29-32-29h-62v-6-52a481 481 0 00-6-84c-9-54-27-105-57-152-38-59-89-104-155-129-73-29-148-32-224-15-65 15-119 48-163 96-39 43-65 92-82 147a443 443 0 00-19 129v66zm728 306l12 3a166 166 0 0019 3c47 2 93 0 140-9 67-14 128-40 180-87 29-27 54-58 69-95 7-16 12-33 17-50 1-4 3-5 6-5h42c12 0 19-5 23-17a65 65 0 003-33c-4-17-13-25-30-25h-63v-48c0-28-1-56-5-84-7-50-21-97-46-141a324 324 0 00-270-171c-32-3-63-1-94 6l-25 5 8 8 7 8c32 40 58 83 78 131a580 580 0 0140 157c0 3 2 5 5 7a161 161 0 0157 50l8 11c-5-18-3-34 6-50a65 65 0 0138-31 67 67 0 0178 31 67 67 0 01-65 99c-19-2-34-12-46-27a17 17 0 001 5 164 164 0 0112 55c1 34-5 65-22 94-20 35-50 59-88 72-2 0-4 2-5 3-15 35-38 66-62 94l-28 31z"/><path d="M733 800a67 67 0 111-133c36 0 66 30 66 67 0 36-30 66-67 66zM400 800c-37 0-67-30-67-67a67 67 0 0168-66c36 0 66 30 66 66a67 67 0 01-67 67z"/></svg>