<svg id="iconlupa" xmlns="http://www.w3.org/2000/svg" viewBox="0 0 69.28 69.28"><title>iconlupa</title><path d="M26.64,1.64h6c.41.28.8.75,1.24.8C51.56,4.59,63.33,25.73,53.44,43.37a4.08,4.08,0,0,0,.43,3.79c4.46,4.62,9.15,9,13.77,13.48v7h-7c-3.88-4-7.87-8-11.59-12.13-2.3-2.59-4.14-3-7.55-1.35C25.59,62,7.17,53.11,2.87,35.82a25.74,25.74,0,0,0-1.23-3.18v-6c.43-1.23.94-2.44,1.29-3.69Q7.3,7.28,23,2.92C24.21,2.58,25.41,2.07,26.64,1.64ZM11.36,29.77A18.45,18.45,0,0,0,29.52,47.85,18.62,18.62,0,0,0,47.85,29.36a18.44,18.44,0,0,0-18.23-18A18.25,18.25,0,0,0,11.36,29.77Z"/></svg>