<svg id="iconvk" xmlns="http://www.w3.org/2000/svg" viewBox="0 0 108 63.3"><path d="M8.3 11V8c5.8-.3 11.7-1.5 17.1-.2 2.5.6 3.9 6 5.7 9.3 2.4 4 4.6 8.1 7.2 12 1 1.5 3 3.1 4.8.3C46.2 24 44 11.7 38.8 7c1.8-.8 3.3-2 5-2 4-.3 8.3-.2 12.4-.2 4 0 5.8 2.1 5.8 6 0 4.4-.5 9-.3 13.4 0 2.2 1 4.4 1.5 6.6l2 .4c2.7-4 6.7-7.8 8-12.2 3.2-11.5 10.6-13.5 21-12.3 5.6.7 7 2 4 7A159.3 159.3 0 0188.6 28c-5.2 7.2-5.1 7.5 1 13.7a81.3 81.3 0 019 10.7c1.7 2.4 1.7 5.3-2.5 5.6-9.8.8-19.8 1.8-26-8.8-.9-1.5-3.4-2-5.2-3L62 51.6a4.6 4.6 0 00-.2 2c0 3.4-1.8 4.3-5.1 4.5A30.6 30.6 0 0128 44.3C20.7 33.7 14.8 22.1 8.3 11z"/></svg>