<svg id="icontvor" xmlns="http://www.w3.org/2000/svg" viewBox="0 0 323.3 385.9"><path d="M168 2l19 5q58 15 96 62l2 3 1 1 8-6c7-4 15-4 21 2 6 5 7 14 2 21l-9 15c-2 2-2 4-1 6a170 170 0 0114 68 178 178 0 01-170 179l-45 1a14 14 0 00-7 2c-18 12-37 18-58 21l-6 1H6c-6-5-4-12-3-18a194 194 0 0110-50c8-23 22-41 42-53 7-4 15-7 24-7 2 0 3-1 4-3l55-78c3-5 7-7 11-10l97-65 7-4a142 142 0 00-40-36 136 136 0 00-59-19c-21-1-41 2-58 15a47 47 0 00-17 56c5 11 15 18 26 15 4-1 6-2 7-6 2-10 11-16 21-15 9 1 17 10 17 19-1 18-10 29-25 36-28 13-59 3-75-23a83 83 0 018-99C75 19 97 7 122 3a5 5 0 002-1zm-36 318c104 6 167-91 147-169l-1 1-54 83c-2 4-5 9-9 12l-34 23-47 31a5 5 0 00-2 3v16zm55-77l-43-43-40 56 25 25z"/></svg>