<svg id="logosvg" xmlns="http://www.w3.org/2000/svg" viewBox="0 0 137.67 201.66"><defs><style>.cls-1{fill:#232323;}.cls-2{fill:#222;}.cls-3{fill:#cdcdcd;}.cls-4{fill:#262626;}.cls-5{fill:#1b1b1b;}.cls-6{fill:#c6c6c5;}.cls-7{fill:#a9a9a9;}.cls-8{fill:#101010;}.cls-9{fill:#494949;}.cls-10{fill:#e4f2cc;}.cls-11{fill:#e9f7d3;}.cls-12{fill:#5c5c5c;}.cls-13{fill:#9fbf66;}.cls-14{fill:#a9c478;}.cls-15{fill:#dde4cd;}.cls-16{fill:#cddcae;}.cls-17{fill:#b2b2b1;}.cls-18{fill:#353535;}.cls-19{fill:#a3b582;}.cls-20{fill:#f7fcee;}.cls-21{fill:#4e4e4e;}.cls-22{fill:#cfcfcf;}.cls-23{fill:#535353;}.cls-24{fill:#414141;}.cls-25{fill:#8d8d8d;}.cls-26{fill:#e2e2e2;}</style></defs><title>logosvg</title><path class="cls-1" d="M125.85,183l2,2.62,1,.78,1,.65c.09.63.19,1.25.28,1.88-.06,0-.11-.09-.17-.09s-.12.06-.18.08h.35l.09.64-.44,1.12-.35,1.41-1.61,1.4h-4.31l-.89.07-.8,0-.87,0-3.87,1.23-2.59-.83-.84-.45-1.3-.08-1.73.82-.82.1-.86,0-2.11-.47a.14.14,0,0,0-.19-.13l-1.4-1.31-.83-1.63c-.33-.67-.66-1.35-1-2a.44.44,0,0,1-.13-.33l-.79-1.36-.55-.51-2.66-4.27-.58-1.06-.91,1.15-.54,1.6.08.07-.07-.08-1.34.4c-1.6-.63-3.18-1.06-4.84,0a1.85,1.85,0,0,1-1.61,0c-1.92-1.12-3.79-.68-5.69,0q-1.49-2.16-3-4.3l-.5-1.14-.32-.58-.58-1.13H79c-.64-.91-1.27-1.83-1.91-2.75-.47-1.73-2.18-2.08-4.19-.84l-1.25.14-1.74.32-.82.14-5.61,1.58-1,.37-1.14.51-.39.55-.78.35-1.72.56-1.35.83-.29.58-2.05,1.27-.94.84-.15-.13.14.14L52.53,183c-.11.27-.23.54-.34.8l-.69,1.1h0l-.91,1.28a.15.15,0,0,0-.11.2l-.64.28L49,187.9l-4.07,5.43-.68.5-3.82,0-.87-.38-.82-.15c-.92-1.33-1.06-.21-1.35.44l-1,.4-5.62-.55a.28.28,0,0,1-.24-.16l-.67-.77-.63.61-.83.16-3.29.3-1.42-.33a.16.16,0,0,0-.21-.13c-.08-.23-.17-.45-.25-.68l-.86-.87h0l-.83-3.45.11-1.22a.28.28,0,0,0,.25-.27l1.82-1.48,1.07-1c.21-.38.42-.76.64-1.14l.43-1.72,1.77-4.68-.77-.37c-.45.55-.95,1.07-1.35,1.65-.84,1.23-1.54,2.58-2.48,3.72a4.64,4.64,0,0,1-4.69,1.83c-2.63-.27-5.35,0-8.1-.27-2.06-.2-3.67-.18-4.91-1.91a3.65,3.65,0,0,1,1.36-4.15,5,5,0,0,0,1.6-2.42,58.34,58.34,0,0,0,1.61-7.71c1-8.25,1.91-16.51,2.85-24.77,1.47.35,1.85,1.47,2.23,2.78a70.6,70.6,0,0,0,2.72,7.76,37.45,37.45,0,0,0,8.94,12.44c1.62,1.52,3.15,1.2,3.77-1a6,6,0,0,0,.13-1.7q0-7.76,0-15.53c0-.66.08-1.32.12-2l.61-.18c1.64,2.64,4.74,4.32,4.76,8.19,2.59-1.66,4.17.31,5.95,1.57.4.28.7.7,1.12.94a58.2,58.2,0,0,0,19.76,6.74,71.25,71.25,0,0,0,15.9.85c5.93-.43,12-.83,17.69-2.87,5.18-1.85,10.32-3.69,14.6-7.34,1.8-1.53,3.85-2.77,6.22-4.45a62.12,62.12,0,0,1,1.34,7.7c.06,1.35.45,1.78,1.57,2l.62.06.12.83-.41.42-1.74.3a9.52,9.52,0,0,1,.87,2c.34,2.85.58,5.7.91,8.55a17.49,17.49,0,0,0,.62,3.54c.19.57.93,1,1.42,1.43l.79.93,1.31,4.84.49,1.14Z"/><path class="cls-2" d="M128.63,96.16l-2.54,3-1,.42c-.61-.31-1.47-.47-1.8-1-1.32-2-2.33-4.19-3.73-6.11a59.11,59.11,0,0,0-5.94-7.24,89.76,89.76,0,0,0-7.24-6c-1.15-.92-2.37-1.76-3.69-2.75-1.17,2.28-2.34,3.22-4.44,1.89-.42-.27-1.45.43-2.2.68-1.08-.48-2.55-.67-3.17-1.5A3.53,3.53,0,0,0,89.48,76c-1.69.11-2.1-.89-1.83-2.32.66-3.45,3.28-4.63,6.69-4.2A5,5,0,0,0,99.4,67.3a12.18,12.18,0,0,1,1.86-1.54c.38.72.76,1.45,1.15,2.17l.52,3a7.72,7.72,0,0,0-.41,2.27c0,.42.84,1.14,1.12,1.07.55-.15,1-.76,1.47-1.17v-.46l.91-.75,5-2,.06.32s.09-.09.08-.13-.07-.11-.11-.16l1.36-.63,1.31-.35,5.48.08,2.2.67,1.29.4,1.12.56,3.1,1.69L128.57,74l1,1.66.84,1.29.69,1.46.89,2.44.16.81.3,1.75v3.36l-.3,1.75-.58,2.09L131,91.71ZM118.16,72.83c-.78.62-2.29,1.21-2.48,2.08a16.46,16.46,0,0,0-.26,6.4c.66,3.57,3.88,4.27,6.82,5,1.73.41,4.58-1.25,5-2.77.5-1.85.74-3.55-.66-5.34A15.64,15.64,0,0,0,118.16,72.83Z"/><path class="cls-3" d="M91.84,155l6.4-1.73c6.52-2.07,12.75-4.64,17.5-9.87.27-.3.9-.27,1.36-.39l1.14.79c.06.5.11,1,.17,1.5l-.43.16c-.89.78-1.79,1.54-2.66,2.34a47.35,47.35,0,0,1-22.88,11.69l-1.16.28-1.62.27-1,.17-1.2.22-.85.12-2.58.32-1.71.15-3.64.21h-6L68.67,161,67,160.82l-2.49-.22-1.59-.26-1.5-.25-1.07-.21-1.07-.19-1.48-.29c-1.45-.38-2.91-.68-4.33-1.15-5.2-1.73-10.24-3.8-14.35-7.59.29-.74.59-1.48.89-2.22.72.26,1.46.49,2.16.78,2.85,1.18,5.69,2.38,8.53,3.57l2.55.87,2.59.84.83,0,1.75.39,5.13.88,2.15.41,4.69.45.88.36h6.86l2.57-.38,4.29-.44,2.16-.4,1.27,0,.88-.39,1.69,0Zm-1,1.77c-.05-.12-.07-.31-.15-.34s-.23.07-.35.12c0,.12.06.3.14.34S90.67,156.77,90.79,156.73Z"/><path class="cls-4" d="M21.09,75.16l1.31-.84c.5.19,1.35.28,1.44.59.4,1.39,1.45,1.09,2.39,1.13-.66.88-1.35,1.74-2,2.64-1.57,2.2-.62,5.93,1.77,6.62a7,7,0,0,0,6.24-.67c.94-.66,2-1.16,3-1.74l1.7.1c.94,2.18-.94,2.68-1.82,3.85-2.83,3.8-5.44,7.76-8.37,12-.44-2.22-.53-4.76-3.33-4.74l-1,1.65L21.08,94c.37-.38,1.12-.92,1-1.12-.37-.92-1-1.71-2.18-.94L19,90.58l-.24-1-.16-.74L18.34,87l-.22-3.67a.42.42,0,0,0,.15-.35c.25-1,.49-2.06.73-3.09l.2-1.16.89-1.8.29-.34.62-1Z"/><path class="cls-5" d="M22.37,95.75l1-1.65c2.8,0,2.89,2.52,3.33,4.74,2.93-4.24,5.54-8.2,8.37-12,.88-1.17,2.76-1.67,1.82-3.85l-1.7-.1,0-.84.84-1.3,0-1.7,2.12-1.74.37.38-1.7,3.18,1.48,2.76L46,77.54l-.59-1.42,2.33.63-1-2.7,3,.78a6,6,0,0,0-.11.61c-.09.89-.58,2.07-.19,2.61a1.74,1.74,0,0,0,2.91.08c.3-.31,1.35-.19,1.9.07,1.42.65,2.6.71,3.52-.73s2.11-2.23,3.74-1.07c1.95-2.59,2-3.23,0-5.58l-1,2.47,1.69-.47-.67,2.23c-3.28-1.52-3.49-2.17-1.37-5.15-2.24,0-4.5.59-6.16-.16-1.81-.82-3.06-2.88-4.63-4.48l.17,3L48,68.3c0-.26,0-.52,0-.78l-.09-.92.1-1.68.18-1.27.95-2,2.67,3.44a.32.32,0,0,0,.18.24l1.11,1.47.58.69c.48.28,1.05.89,1.43.79,3.8-1,6.66.58,9.18,3.2a.32.32,0,0,0,.19.25c.22.88.44,1.76.67,2.64-.54,1.8-1.47,3.22-3.52,3.46-.54.07-1.42-.28-1.62,0-2,2.61-4.71,2.61-7.57,2.14l-1.37.71a7.52,7.52,0,0,1-2-.83,2.08,2.08,0,0,0-3.14,0c-.61.57-1.24,1.1-1.86,1.65a.21.21,0,0,0-.21.18l-1,.73L34,91.47l-.53.7L30,97.4l-.84,1.65-2,2.29L24,98.26l-.23-.46L23,96.9Z"/><path class="cls-6" d="M44,81.44c.62-.55,1.25-1.08,1.86-1.65a2.08,2.08,0,0,1,3.14,0,7.52,7.52,0,0,0,2,.83l1.37-.71c2.86.47,5.55.47,7.57-2.14.2-.26,1.08.09,1.62,0,2-.24,3-1.66,3.52-3.46.05-.6.1-1.21.14-1.81,2,0,4,0,6,.16a5.33,5.33,0,0,1,1.7.76c-.56.87-1.13,1.74-1.7,2.61a7.51,7.51,0,0,0,2.53.77,46.48,46.48,0,0,0,4.94-.77c.55-.09,1.1-.17,1.65-.23l2.27-.21L82.57,75,77.2,73.45c.22-.24.42-.67.67-.7,2.8-.36,5.6-.66,8.41-1l-.06,3.4.53,1.67c-6.44.18-12.93,0-19.31.72-2.21.25-5.44-.08-6.93,3-.22.43-1.65.3-2.53.36-1.38.1-2.77.14-4.43.21,0,0-.12.34-.39,1.11-1.81-.68-3.58-1.41-5.4-2a2.59,2.59,0,0,0-1.48.32C45.51,80.79,44.77,81.13,44,81.44Zm23.17-7,0,.5L68.4,75l0-.5Zm2.64,0c0,.12-.17.26-.13.35s.21.11.33.16c0-.12.17-.26.14-.35S70,74.54,69.83,74.49Z"/><path class="cls-7" d="M16.47,127.9c0,3.91-.09,7.82-.09,11.73a12.15,12.15,0,0,0,.33,2.05,48.6,48.6,0,0,0,1.13,5.12c.95,2.91,2.09,5.77,3.15,8.65a15.38,15.38,0,0,1-1.34-1.84,35.64,35.64,0,0,1-4-14.09c-.23-3.8,0-7.62,0-11.43a1.5,1.5,0,0,0-.75,1c-.72,4.42-1.4,8.85-2.1,13.28-.94,8.26-1.82,16.52-2.85,24.77a58.34,58.34,0,0,1-1.61,7.71,5,5,0,0,1-1.6,2.42,3.65,3.65,0,0,0-1.36,4.15l-.56.05c-.94-1.75-.76-3.44.92-4.5,2.24-1.41,2.28-3.84,2.58-5.82,1.17-7.45,1.85-15,2.81-22.46.75-5.85,1.5-11.71,2.54-17.52a58.19,58.19,0,0,1,2.54-8.12A4.19,4.19,0,0,1,17,122l.62.17C17.22,124.06,16.84,126,16.47,127.9Z"/><path class="cls-8" d="M43.89,105.39l2.17-1.86.85-.59,1-.65,4.88-2.2.76-.15,3.11-.38.85,0,1.42.31,1.56.59,1.22.86.47.47.66.86.69,1.59A27.33,27.33,0,0,1,62.31,118c-.77,2.2-1.78,4.31-2.68,6.46l-.26.37-.54.17h-1c0-.46.05-.91.08-1.36l.46-.83a27.25,27.25,0,0,0,2.19-3.5c1.62-3.71,1.93-7.7,2-11.69.07-3.13-1.81-5.88-4.13-6.22a14.74,14.74,0,0,0-10.31,2.46A22.57,22.57,0,0,0,38,118.89c-.38,2.16.72,4.58,1.14,6.88l-.93,1.33-1.16-1.61-.5-1.45-.15-.73c-.13-4,1.05-7.69,2.4-11.35a.22.22,0,0,1,.13-.24l.57-1,1.12-1.61,1-1.36.7-.77Z"/><path class="cls-9" d="M69.77,43.92c-.36,3.28-1.49,7.07-4.84,9.74-1,.77-2.55,1.75-3.39,1.43a18.11,18.11,0,0,0-5.15-1.45C54.68,53.48,53.83,51,54,48.9c.38-5.09,5.34-10.56,10.39-11.45C67.71,36.87,69.81,39.08,69.77,43.92ZM59.21,41.3h0a9.22,9.22,0,0,0-4.3,7.86c-.06,1.1-.46,2.51,1.23,3l1,1.17.45-.56L56.3,52V50.39a2.34,2.34,0,0,0,.4-.13c2.41-1.67,4.79-3.43,7.71-.88.25.22.82.07,1.24.09l-.45,2.42c.69-.56,1.16-.75,1.26-1.06A83.23,83.23,0,0,0,69,42.89a3.78,3.78,0,0,0-2.21-4.39c-1.73-.85-4.55-.06-5.86,1.52h0ZM65,52.05l-4.24,1.62C61.73,54.78,63.6,54.23,65,52.05Z"/><path class="cls-10" d="M32.66,55.45c-1.79.31-2.63-.52-3.31-2.18a45.2,45.2,0,0,0-3.11-5.54c-2.7-1.44-4.4-4.79-8.14-4.24l-4.73,0-.46-.83.19-.18c2.76,0,5.53,0,8.29.16a9.45,9.45,0,0,1,2.13.6C25,45,26.65,46.62,28,48.48s2.39,3.87,3.57,5.82l.93-.61c-2.42-4.49-4.79-9-8.83-12.45a6.6,6.6,0,0,0,.06-5.16c-.48-1.53-.87-3.09-1.29-4.63.37.37.92.67,1.09,1.12.54,1.46.95,3,1.41,4.47a20.42,20.42,0,0,0,1.19,3.51c1.66,3,3.42,5.88,5.29,8.72a3.66,3.66,0,0,0,2.29,1.67c1.24.05,1.68-1.1,1.51-2.33l.87-3.43c.56-2.31,1.1-4.63,1.72-6.93a8,8,0,0,1,.84-1.64,57.87,57.87,0,0,1-1,7.47c-.89,3.29-2.23,6.46-3.38,9.68Z"/><path class="cls-11" d="M32.66,55.45l1.58-1.69c.16,2.31,2.22,1.44,3.41,2a11.21,11.21,0,0,0,.94-2.46c.29-2.11,0-4.34.64-6.33a85.13,85.13,0,0,1,3.47-8.5c-.46,2-.9,3.91-1.36,5.86A51.8,51.8,0,0,0,40,50.07c-.27,2.26,1,2.88,3.27,2.24a8.79,8.79,0,0,1,4.38.07c.69.17,1.74,1.77,1.55,2.1a5.88,5.88,0,0,1-2.68,2.59c-1.28.48-2.83.23-4.26.3l-.27,1,3.55,1.91-.22.21,2.4,1.91c0,.41-.05.83-.07,1.25s-.23.86-.34,1.29l-.89,0a8.36,8.36,0,0,0-1-2.19c-1.28-1.39-2.72-2.64-4.09-3.94-.62-1.11-1.22-1.09-1.79,0a1.61,1.61,0,0,1-.33.12c-.4.06-.87.29-1.19.16-1.51-.61-3-1.32-4.47-2C33.68,56.33,34.31,55.32,32.66,55.45Zm7.56.56c2.47-.13,4.56-.2,6.64-.41a1.52,1.52,0,0,0,1.09-1,1.85,1.85,0,0,0-.71-1.39C45.91,52.22,41.31,53.79,40.22,56Z"/><path class="cls-12" d="M100.38,131.77l-1.75-.26-2.2-1.82.5-.15,6.32,1.82c.61-1.82,1-3.06,1.44-4.3h0c1.7-.92,3.16,0,4.67.58l0,.12.41,1,1-.86h0l.86-.86h0c2.42-.63,2.52-2.77,2.58-4.56.35-9-4.28-15.37-11.6-19.89-4.68-2.89-9.65-4-14.45,0a9.62,9.62,0,0,1,1.63-2c2.19-1.52,4.69-1.64,7.25-1.29l2.09.53,3.83,1.72,2.71,1.84,7.65,9.55c.36,1,.72,2,1.09,2.93.2.71.41,1.41.61,2.12s.22,1.71.34,2.57l-.18,2.51c0,.27-.1.55-.14.82l-.66,1.74-1.49,2.13c-.2.22-.39.44-.59.65l-.76.48L110.05,130a.23.23,0,0,0-.28.1,13.86,13.86,0,0,0-1.29-1c-.86-.52-1.83-1.46-2.62-1.34-1.2.18-1.71,1.32-1.11,2.65a4.5,4.5,0,0,1,.1,1.36Z"/><path class="cls-13" d="M46.62,24.67c0,.27-.08.53-.11.79-.73,2.13-1.41,4.27-2.22,6.36A7.51,7.51,0,0,1,43,33.48l-2.25-.68L42.2,29l.93-1.89.22-2.51.12-.81c.33-.86.66-1.72,1-2.58l.28-.86-.06-3.53c-1.07-1.74-2.15-3.48-3.38-5.49l2,.88,1,1.17.89.91,1.65.9,1.28-1.65,2.95-2.65c.7-.09,1.54-.39,1.33.88l-1.65,3.47h0l-.82.84a2.54,2.54,0,0,0-.1.37l-1.38,1.18-1.16,1-.07.86.1,1.73c-.05.26-.09.52-.13.78l-.63,1.83Z"/><path class="cls-14" d="M42.7,38.51A85.13,85.13,0,0,0,39.23,47c-.59,2-.35,4.22-.64,6.33a11.21,11.21,0,0,1-.94,2.46c-1.19-.6-3.25.27-3.41-2,1.15-3.22,2.49-6.39,3.38-9.68a57.87,57.87,0,0,0,1-7.47c0-.44.05-.87.07-1.31A1.65,1.65,0,0,0,38.8,35a.44.44,0,0,0,.29-.11l.78-.14,1,.08.36.13,1.35.73,0,0L43,37.05Z"/><path class="cls-15" d="M20.38,76.6l-.29.34-2.32-2.7c1.19.19,1.34-.52,1.12-1.4-.58-2.32-1.1-4.67-1.89-6.92a20.77,20.77,0,0,0-2.11-3.63l-.76.31,1.44,7.05-1.7-.33V71H9.58l-.91.37.06.78L8.65,73l-1.23-1.4,3.22-2.34c0-1.38-2.57-2.69-1.11-4.81a13.63,13.63,0,0,0,2.08.4c1.15.06,2-.23,1.61-1.74a5.09,5.09,0,0,1,.32-1.9,11.88,11.88,0,0,1,2,.65c2.13,1.14,2.28,3.39,3,5.36.55,1.58.36,3.6,1.93,4.23.25,1.4.45,2.53.65,3.67l-.09.43ZM11,65.22,9.91,66.33l1.73,1.55.95-1Z"/><path class="cls-8" d="M85.89,53.6l-3.51-5L82,46.46c-.16-1.71-.31-3.42-.47-5.14L82,39.21a.14.14,0,0,0,.12-.17l1-.88.54-.27h.86l2.14,0,.88-.08a1.21,1.21,0,0,0,.35.24l3.29,1.73a.3.3,0,0,1,.26.18l.81.93L95,44.14c.44,1.09.87,2.19,1.31,3.28l.16.78c0,.7,0,1.41,0,2.12l-.41,1.28L95.28,53l-.47.38L93,52.48c1.46-.06,1.45-1.1,1.44-2.14.25-.41.8-.91.72-1.23-1.14-4.29-3-8-7.57-9.66-1.65-.58-3.94-.16-4.14,1.33-.4,3-.27,6,1.56,8.71a5,5,0,0,0,5,3.89l.43,0-.12,1.18L88.39,55,88,54.57l-1.35-.78Z"/><path class="cls-8" d="M96.1,79.05c.75-.25,1.78-1,2.2-.68,2.1,1.33,3.27.39,4.44-1.89,1.32,1,2.54,1.83,3.69,2.75a89.76,89.76,0,0,1,7.24,6,59.11,59.11,0,0,1,5.94,7.24c1.4,1.92,2.41,4.12,3.73,6.11.33.5,1.19.66,1.8,1l-.46,1.24a.17.17,0,0,0-.15.21l-.59.21-.82-.12a.21.21,0,0,0-.31.16L122.3,100a29.46,29.46,0,0,0-7.11-10.85l-.06-.06-.82-.89-.69-.57-3.85-3.86-5.07-4a.16.16,0,0,0-.19-.17c-.8-1.06-1.46-.92-2,.23l-.45.36-.81.12-2.38-.21-.64-.45-2.1-.63Z"/><path class="cls-4" d="M75.39,63.64c1.63.26,3,.41,4.27.72s1.55,1.14.68,2.18c-2.25,2.7-7.82,2.65-9.9-.16a1.84,1.84,0,0,1,.47-1.67A43.51,43.51,0,0,1,75.39,63.64Z"/><path class="cls-16" d="M101.24,142a3.47,3.47,0,0,1,3.6-3.82,4,4,0,0,1,4,3.79c0,1.62-2.06,3.86-3.6,3.89A3.65,3.65,0,0,1,101.24,142Z"/><path class="cls-12" d="M94.44,33c-2-1.24-4-2.42-5.86-3.79a2,2,0,0,1-.14-1.87,9.24,9.24,0,1,1,14.91,10.92,5.25,5.25,0,0,1-.77,1c-.62.51-1.3.94-2,1.41l-1.25-2c.79,0,1.43,2.22,2.36.16,4.49-4.09,2.72-11.16-1.39-13.26s-7.9-1.23-11.2,2a8,8,0,0,0,1.13,1.89C91.61,30.67,93.05,31.81,94.44,33Z"/><path class="cls-8" d="M86.75,76.85l-.53-1.67.67-3.69.33-.82,3.92-2.3,1.59-.31h2c.81.82,1.6,1.32,2.19-.2a2,2,0,0,0,0-.35l1-1.11,0-.05,2.34-2.75,1.24,0,.08,1.25-.43.87A12.18,12.18,0,0,0,99.4,67.3a5,5,0,0,1-5.06,2.21c-3.41-.43-6,.75-6.69,4.2-.27,1.43.14,2.43,1.83,2.32a3.53,3.53,0,0,1,3.45,1.52c.62.83,2.09,1,3.17,1.5l0,0-.27,1.05-3.58-.71L91.92,79l-.55-1.21-.5-.73-.82.61-2.88-.45Z"/><path class="cls-17" d="M4.75,181.49l.56-.05c1.24,1.73,2.85,1.71,4.91,1.91,2.75.27,5.47,0,8.1.27A4.64,4.64,0,0,0,23,181.79c.94-1.14,1.64-2.49,2.48-3.72.4-.58.9-1.1,1.35-1.65l.77.37-1.77,4.68-.47-.5c-1.14,1-2.24,2-3.47,2.91-.64.46-1.74,1.08-2.2.83-1.63-.89-3,.27-4.36.26a43.35,43.35,0,0,1-8.7-1.1C5.87,183.71,5.37,182.32,4.75,181.49ZM25.5,180l.11.09,0-.15Z"/><path class="cls-18" d="M75.56,55.27a12.18,12.18,0,0,1,1.71,0c.73.1,1.45.32,2.17.48A7.24,7.24,0,0,1,78.57,58c-2.21,2.61-5.31,2.18-7-.87-.62-1.14-.33-1.79,1-1.86,1,0,2,0,3,0Z"/><path class="cls-11" d="M39.87,34.73l-.78.14c.59-2.63,1-5.32,1.86-7.88.32-1,1.57-1.61,2.4-2.4-.08.84-.15,1.68-.22,2.51L42.2,29c-.48,1.27-1,2.54-1.42,3.81.52,1,1.09,1.8,2.25.68a7.51,7.51,0,0,0,1.26-1.66c.81-2.09,1.49-4.23,2.22-6.36.27.64.55,1.27.82,1.9.11.08.22.14.33.21l-.82,2c-.19.77-.39,1.53-.59,2.29L45.89,34l-.47,0-1.18,1.79-.84,1.23c-.27-.45-.53-.9-.8-1.34l0,0-1.35-.73-.36-.13Z"/><path class="cls-19" d="M24,98.26q1.57,1.55,3.16,3.08l-.07.46c-.42.37-1,.65-1.23,1.11-1.2,2.45-2,5.2-4.68,6.54,0-.7,0-1.4,0-2.1L22.84,100l.25-1.58Z"/><path class="cls-3" d="M77.2,73.45,82.57,75l.09.67-2.27.21c-.55.06-1.1.14-1.65.23a46.48,46.48,0,0,1-4.94.77,7.51,7.51,0,0,1-2.53-.77c.57-.87,1.14-1.74,1.7-2.61Z"/><path class="cls-10" d="M12.91,42.64l-1.79-1,2.69-2,4.6-.4c.18-1.9-2.46-2.51-1.14-4.29h1.25l1.38.49L19,34c0-.28,0-.57,0-.85.56-1.72.54-4,3.42-3.42l.09.84-.18,0c-2.29-.23-1.79,1.6-1.82,2.74a22.92,22.92,0,0,0,.61,4.09l-2.71-1.09,3,3.57c-2.27.2-4.08.33-5.88.53-1.2.13-2.55.15-2.39,2Z"/><path class="cls-20" d="M61.71,61.78c-.46.83-.63,1.65-1.08,1.85a42.3,42.3,0,0,1-5.58,2c-.28.09-1.25-.83-1.18-1.11.45-1.85.73-3.92,1.82-5.34.56-.72,2.81-.59,4.07-.16C60.61,59.35,61.07,60.83,61.71,61.78ZM58.05,59c-.85,1.08-1.67,1.65-1.73,2.3-.12,1.16.34,2.53,1.82,2.25a3,3,0,0,0,1.82-2C60.07,60.89,59,60.11,58.05,59Z"/><path class="cls-5" d="M46.84,29.58c.28-.67.55-1.34.82-2h0l1.77-2L52,24.62l2.65-.7h1.13l2.22.67,1.42.69.33,1-.49,0A3.83,3.83,0,0,0,57.82,26c-1.54.18-3.07.48-4.6.74L49,28.64,50.24,31a7.39,7.39,0,0,1-1.16-.19,13.8,13.8,0,0,1-1.41-.66Z"/><path class="cls-8" d="M54.63,34.94l-3.41,4.44-.51.27-1.56.13c-.23-.32-.45-.64-.67-1l-.06-1.24.1-.11,1.6.73-.35-.62c2.9-2.58,5.82-5.12,8.67-7.76a20.83,20.83,0,0,0,2.09-2.65h1.32l.9.78L59.19,31l-.46.36-1,.75-1.86,1.63Z"/><path class="cls-11" d="M44.67,16.81l.06,3.53c-.09.29-.19.58-.28.86-.32.86-.65,1.72-1,2.58a16.81,16.81,0,0,1,0-4c.34-1.43.47-2.41-1.16-3a3.91,3.91,0,0,1-1.45-1.41c-.65-.89-1.14-1.89-1.78-2.77-.87-1.18-1.52-2.29,0-3.44L40,8.34h1.26l1.6,2.29c-.64-.31-1.28-.85-1.9-.82-.43,0-1.25,1.14-1.19,1.21C41.33,13,43,14.89,44.67,16.81Z"/><path class="cls-20" d="M42.83,10.63l-1.6-2.29a9.92,9.92,0,0,1,2.11-2.13c.48-.25,1.49.14,2,.53.3.22.17,1.06.23,1.61l4.18.82,0,0-.57,1.9c-3.29-3.66-2.43.68-3.3,1.26l-2.53-.62Z"/><path class="cls-20" d="M94.82,62.33a6.87,6.87,0,0,1,1.09,1.54c.11.33-.26.83-.41,1.25-1.37-1-2.4.09-3.55.56-.2.08-.72-.31-.93-.59s-.18-.94-.46-1.15c-2.1-1.53-1.88-3-.09-4.6.63-.58.42-2.14,2-1.6s2.92,1,2.73,3A5.71,5.71,0,0,0,93.92,60c-.67-.2-1.65-.59-2-.29a2.91,2.91,0,0,0-.9,2.13C91.09,63.83,92.57,64,94.82,62.33Z"/><path class="cls-6" d="M126.89,72.27l-3.1-1.69L122.67,70l-1.29-.4-2.2-.67-5.48-.08-1.31.35-1.36.63,0,0-5,2c.21-.42.31-1,.65-1.21a17.71,17.71,0,0,1,19.3.1C126.41,71,126.59,71.75,126.89,72.27Z"/><path class="cls-6" d="M132.41,86.72c0-1.12,0-2.24,0-3.36l-.3-1.75c-.06-.27-.11-.54-.16-.81-.3-.81-.59-1.63-.89-2.44l-.69-1.46-.11-.75.23-.21c.89,2,2.1,4,2.59,6.12a15.43,15.43,0,0,1-2.92,13.1,5.15,5.15,0,0,1-1.52,1c.8-1.48,1.6-3,2.41-4.45.16-.38.32-.77.49-1.15.19-.69.38-1.39.58-2.09Z"/><path class="cls-20" d="M17.27,34.92c-1.32,1.78,1.32,2.39,1.14,4.29l-4.6.4V34.7Z"/><path class="cls-6" d="M100.37,63.6,98,66.35c.75-1.61,1.46-3.25,2.3-4.82a1.35,1.35,0,0,1,1.29-.3,2.77,2.77,0,0,1,.84,1.52c.63,3,1.15,6.09,1.78,9.12.06.29.56.5.86.74v.45c-.94.48-1.76.76-1.8-.82a5.62,5.62,0,0,0-.38-1.34c-.18-1-.35-2-.52-3l-.72-3-.08-1.25-.41-1.22Z"/><path class="cls-11" d="M21.17,109.45c2.73-1.34,3.48-4.09,4.68-6.54.23-.46.81-.74,1.23-1.11l.44.69c-.44,1.25-.94,2.48-1.3,3.75-.77,2.69-2.59,4.38-4.55,4-.38-.07-.68-.54-1-.82Z"/><path class="cls-20" d="M17.77,74.24l2.32,2.7-.89,1.8-1.09-.13c-2.27-.59-3.43-2.3-4.31-4.29l.47-.71,1.2,0,2.26.61Z"/><path class="cls-20" d="M22.37,29.76c-2.88-.6-2.86,1.7-3.42,3.42-.43-.53-1.14-1-1.23-1.61-.35-2.16,1.09-3.58,2.5-4.86.36-.34,1.27-.08,1.93-.1l-.56,2.13Z"/><path class="cls-16" d="M94.82,62.33c-2.25,1.68-3.73,1.5-3.82-.52a2.91,2.91,0,0,1,.9-2.13c.37-.3,1.35.09,2,.29a5.71,5.71,0,0,1,1.25.74C95.05,61.25,94.94,61.79,94.82,62.33Z"/><path class="cls-20" d="M13.37,43.47l4.73,0-1.27,1.12c.06.73.33,1.83.13,1.92a2.7,2.7,0,0,1-2.17.24C13.65,46.08,12.35,45.19,13.37,43.47Z"/><path class="cls-8" d="M94.44,33c-1.39-1.19-2.83-2.33-4.16-3.59a8,8,0,0,1-1.13-1.89c2.3,1.7,4.65,3.33,6.85,5.14a11,11,0,0,1,1.81,2.66l-.15.12-1.37-.63Z"/><path class="cls-20" d="M36.1,45.18l-.87,3.43c-2.8-2-3.32-4.15-1.45-5.93Z"/><path class="cls-20" d="M54.54,8.73c.68.85,1.71,1.62,2,2.58s-2.88,3-4.12,3l1.14-2.65.72-2.07.27-.82Z"/><path class="cls-3" d="M80.82,180q1.5,2.15,3,4.3l2.88.24c-1.59,1.71-3.71,1.48-5.14-.84a54.43,54.43,0,0,1-2.86-6.08c0-.09.2-.31.31-.47h.42l.58,1.13.32.58C80.49,179.25,80.66,179.63,80.82,180Z"/><path class="cls-6" d="M34,91.47l8.88-9.12a9,9,0,0,1-1,1.46c-1.76,1.85-3.56,3.66-5.35,5.48Z"/><path class="cls-17" d="M47.64,63.61c0-.42,0-.84.07-1.25a3.76,3.76,0,0,1,.11-1.48,7.7,7.7,0,0,1,1.25-1.45,6,6,0,0,1,1.12,1.33c.6,1.41,1.08,2.87,1.6,4.31l-2.67-3.44-.95,2Z"/><path class="cls-3" d="M125.85,183l-.68-.69c-.17-.38-.33-.76-.49-1.14q-.66-2.43-1.31-4.84l-.3-.9-.24-1.64-.24-1.18-.13-1,.3-1.35a23.87,23.87,0,0,1,.86,2.41c.72,2.89,1.4,5.79,2.07,8.69A12.81,12.81,0,0,1,125.85,183Z"/><path class="cls-20" d="M25,37c-.46-1.5-.87-3-1.41-4.47-.17-.45-.72-.75-1.09-1.12-.06-.27-.11-.54-.17-.8l.18,0c.53.16,1.08.3,1.6.49,2.2.81,2.69,1.92,1.8,4.09C25.6,35.81,25.26,36.42,25,37Z"/><path class="cls-21" d="M86.69,184.55l-2.88-.24c1.9-.66,3.77-1.1,5.69,0a1.85,1.85,0,0,0,1.61,0c1.66-1,3.24-.61,4.84,0l-1.57.55H92.23l-.86.42H89.24l-1.75-.76Z"/><path class="cls-12" d="M35.68,122.32v-2.14c0-.28.1-.56.14-.85l.15-.81c.13-.72.25-1.43.38-2.15l1.69-4,.77-.45c-1.35,3.66-2.53,7.37-2.4,11.35Z"/><path class="cls-3" d="M114.5,193.93l2.59.83v.47c-.52.06-1.18.36-1.53.15-1.88-1.17-3.72-.85-5.61-.08-1.55.63-2.5-.09-3.11-1.48l2.11.47.86,0,.82-.1,1.73-.82,1.3.08Z"/><path class="cls-17" d="M64.27,71.46c-2.52-2.62-5.38-4.19-9.18-3.2-.38.1-1-.51-1.43-.79,2,0,4-.29,5.88.12C61.61,68,63.83,68.78,64.27,71.46Z"/><path class="cls-3" d="M36.37,194.19l1-.4,1.35-.44.82.15.87.38,3.82,0c-.7,1.51-1.76,2.11-3.32,1.21a4,4,0,0,0-4.2.08c-.49.28-1.24.06-1.87.07Z"/><path class="cls-8" d="M46.84,29.58l.83.6c.28,2.43.57,4.86.85,7.28l-.1.1h-.89a.66.66,0,0,1-.27-.12l-.87-3-.14-2.59Z"/><path class="cls-3" d="M118.92,146.29a14.45,14.45,0,0,1,2.07,9.89l-.58-.47-.15-1.59-.21-.93-.17-.8-.24-1.35-.19-1.22-.31-.91-.5-2.1Z"/><path class="cls-3" d="M121.48,160a22.84,22.84,0,0,1,1,3.67c.21,1.91.16,3.86.21,5.79h-.49c-.07-.55-.14-1.1-.22-1.65l-.18-1.36c0-.41-.11-.81-.17-1.22l-.3-2.67-.19-1.62Z"/><path class="cls-3" d="M44.88,193.33,49,187.9l.77-.51.21.21C48.78,190,47.7,192.41,44.88,193.33Z"/><path class="cls-6" d="M94.74,68.06h-2l-1.59.31-3.92,2.3c.79-2.65,5.72-4.44,8-2.93Z"/><path class="cls-20" d="M23.09,98.45c-.09.53-.17,1-.25,1.58-.48,1.06-.92,2.14-1.43,3.18-.34.69-.77,1.33-1.16,2C19.74,102.91,21.4,99,23.09,98.45Z"/><path class="cls-22" d="M118.24,143.76,117.1,143l3.27-3.58.75.63Z"/><path class="cls-3" d="M97.28,184l.54-1.6,1.49-.09,2.66,4.27-3.27-3.09Z"/><path class="cls-11" d="M20.25,105.2c.39-.66.82-1.3,1.16-2,.51-1,.95-2.12,1.43-3.18-.56,2.44-1.13,4.88-1.69,7.32L20.26,106Z"/><path class="cls-20" d="M20.26,106l.89,1.31c0,.7,0,1.4,0,2.1h-.51a3.17,3.17,0,0,1-1.07-.6c-.42-.5-1.08-1.24-.95-1.66S19.69,106.41,20.26,106Z"/><path class="cls-3" d="M61,177.18l.39-.55,1.14-.51,1-.37,4.79-1Z"/><path class="cls-8" d="M101.74,38.82c-.93,2.06-1.57-.19-2.36-.16l-.25-.4-.56-.8-.73-.91-.18-1.11.15-.12Z"/><path class="cls-3" d="M129.44,192.13c.12-.47.23-.94.35-1.41s.29-.75.44-1.12l-.09-.64h0c-.09-.63-.19-1.25-.28-1.88.45.56,1.2,1.09,1.29,1.7C131.34,190.19,131.23,191.65,129.44,192.13Z"/><path class="cls-6" d="M30,97.4l3.43-5.23Z"/><path class="cls-20" d="M49.8,9.17c1.66-2,3.54-2.27,4.74-.44l0,0L53.56,9h-.65l-1,.19-2.12,0Z"/><path class="cls-16" d="M53.51,11.67l-1.14,2.65-1.64.91,1.65-3.47Z"/><path class="cls-17" d="M59.19,31l3.56-3.07a6.83,6.83,0,0,1,.39,1.18C61.85,29.79,60.51,30.39,59.19,31Z"/><path class="cls-16" d="M8.65,73c0-.31.06-.62.08-.93l4.64,1.27v.52Z"/><path class="cls-12" d="M52.8,100.09l-4.88,2.2.49-.78.61-.39Z"/><path class="cls-22" d="M95,44.14l-2.72-3.26-.12-.77c1.63.88,3,2,3.13,4A.21.21,0,0,0,95,44.14Z"/><path class="cls-21" d="M68.27,174.78l-4.79,1,5.61-1.58v.46Z"/><path class="cls-5" d="M19.94,92c1.19-.77,1.81,0,2.18.94.08.2-.67.74-1,1.12Z"/><path class="cls-12" d="M81.54,41.32c.16,1.72.31,3.43.47,5.14h-.48c-.07-.26-.13-.53-.2-.8l-.21-1.34,0-3Z"/><path class="cls-3" d="M69.1,174.63v-.46l.82-.14,1.74-.32,1.25-.14.94.3A4.35,4.35,0,0,1,69.1,174.63Z"/><path class="cls-21" d="M73.84,173.87l-.94-.3c2-1.24,3.72-.89,4.19.84Z"/><path class="cls-11" d="M47.28,21.2c0-.58-.06-1.16-.1-1.73,0-.29,0-.57.07-.86l1.16-1,1,.11Z"/><path class="cls-21" d="M36.37,194.19l-1.56,1-1.73,0-2.33-1.59Z"/><path class="cls-15" d="M18.12,83.34c.07,1.22.15,2.45.22,3.67-.1.35-.21.7-.32,1A3.49,3.49,0,0,1,18.12,83.34Z"/><path class="cls-17" d="M52,24.62l-2.52.92c.74-1.86,2.25-2.12,4-1.93Z"/><path class="cls-6" d="M27.52,102.49l-.44-.69c0-.15,0-.31.07-.46l2-2.29C28.85,100.32,29.47,102,27.52,102.49Z"/><path class="cls-17" d="M59.37,25.28,58,24.59l-1.47-1a3.73,3.73,0,0,1,4,1.85Z"/><path class="cls-3" d="M21.63,187.1l-.11,1.22-.12,2.61C19.85,189.14,19.91,188.08,21.63,187.1Z"/><path class="cls-12" d="M93,52.48l1.84.85-.46.81L92.4,54a.27.27,0,0,0-.16-.22l-.42-.89Z"/><path class="cls-3" d="M121,193.53l.87,0c-.83,1.23-1.62,2.53-3.45,1.66Z"/><path class="cls-22" d="M84.52,37.9h-.86c1.32-1.71,2.41-1.73,3.88-.09l-.88.08Z"/><path class="cls-3" d="M30.75,193.64l2.33,1.59c-1.62.47-2.65-.32-3.45-1.61l.88-.14A.28.28,0,0,0,30.75,193.64Z"/><path class="cls-23" d="M121,193.53l-2.58,1.68-1.29,0v-.47Z"/><path class="cls-3" d="M94.38,184.89l1.57-.55,1.34-.4C96.36,185.82,95.54,186.09,94.38,184.89Z"/><path class="cls-12" d="M91.18,39.77,87.89,38Z"/><path class="cls-24" d="M86.89,71.49l-.67,3.69.06-3.4Z"/><path class="cls-23" d="M123.52,193.51H127l-.85.83h-1.73Z"/><path class="cls-7" d="M46.39,34.46l.87,3L45.42,34l.47,0Z"/><path class="cls-6" d="M123.94,101.25l.59-.21-.21,1.4-1.55.12c0-.43,0-.85,0-1.27a.21.21,0,0,1,.31-.16Z"/><path class="cls-9" d="M52,24.62l1.47-1,1.18.31Z"/><path class="cls-22" d="M96.44,48.2c-.06-.26-.11-.52-.16-.78-.08-.74-.15-1.48-.23-2.22a1.92,1.92,0,0,1,.86,3Z"/><path class="cls-21" d="M21.4,190.93l.12-2.61c.28,1.15.56,2.3.83,3.45l-.8-.49A.45.45,0,0,0,21.4,190.93Z"/><path class="cls-19" d="M19,79.9c-.24,1-.48,2.06-.73,3.09l-.18-1.81.26-.49c.06-.26.13-.52.2-.78Z"/><path class="cls-21" d="M25.09,193.78l3.29-.3a.43.43,0,0,1,0,.4l-1.27.49-1.72,0Z"/><path class="cls-23" d="M120.41,155.71l.58.47c0,.27.05.54.08.82-.09.45-.19.9-.28,1.36l-.62-.06Z"/><path class="cls-12" d="M96.05,45.2c.08.74.15,1.48.23,2.22-.44-1.09-.87-2.19-1.31-3.28a.21.21,0,0,1,.29,0C95.52,44.48,95.79,44.84,96.05,45.2Z"/><path class="cls-22" d="M88.39,55l1.89-.41,0,1.13Z"/><path class="cls-12" d="M97.66,35.44l.18,1.11-1.55-1.74Z"/><path class="cls-9" d="M59.37,25.28l1.14.19,1.34,1.68H60.54l-.84-.87Z"/><path class="cls-9" d="M56.48,23.62l1.47,1-2.22-.67Z"/><path class="cls-6" d="M129.52,75.61l-1-1.66,1.91,2-.23.2Z"/><path class="cls-3" d="M58.45,178.09l1.72-.56L58.06,179l-.21-.23Z"/><path class="cls-17" d="M65.27,72.54c0,.6-.09,1.21-.14,1.81-.23-.88-.45-1.76-.67-2.64Z"/><path class="cls-22" d="M96.08,51.6l.41-1.28h.43c.74,1.1.19,1.72-.83,2.15Z"/><path class="cls-23" d="M122.17,169.48h.49c0,.27.07.55.1.82l-.3,1.35C122.36,170.92,122.26,170.2,122.17,169.48Z"/><path class="cls-12" d="M96.92,50.32h-.43c0-.71,0-1.42,0-2.12h.47Z"/><path class="cls-21" d="M94.74,68.06l.53-.32,1.66.12C96.34,69.38,95.55,68.88,94.74,68.06Z"/><path class="cls-3" d="M25.09,193.78l.29.55-1.71-.88Z"/><path class="cls-3" d="M120.79,158.36c.09-.46.19-.91.28-1.36.12.72.23,1.45.35,2.17l-.51,0Z"/><path class="cls-12" d="M43.89,105.39,42.37,107Z"/><path class="cls-22" d="M92.4,54l1.95.17c-.43.29-.87.57-1.31.85Z"/><path class="cls-23" d="M103.44,188.73c.32.67.65,1.35,1,2l-1.22-1.52Z"/><path class="cls-22" d="M81.53,46.46H82l.37,2.15C82.1,47.89,81.81,47.18,81.53,46.46Z"/><path class="cls-22" d="M81.54,41.32H81.1L82,39.21C81.87,39.92,81.7,40.62,81.54,41.32Z"/><path class="cls-3" d="M126.1,194.35l.85-.83h.88C127.56,194.44,127.2,195.17,126.1,194.35Z"/><path class="cls-3" d="M23.7,185.35l-1.82,1.48Z"/><path class="cls-3" d="M123.52,193.51l.85.84-1.74-.77Z"/><path class="cls-6" d="M124.68,100.83l.46-1.24,1-.42Z"/><path class="cls-23" d="M120.91,159.19l.51,0,.06.84c-.12.32-.25.63-.37,1l-.61-1.35Z"/><path class="cls-3" d="M87.49,184.55l1.75.76Z"/><path class="cls-19" d="M18,88.06c.11-.35.22-.7.32-1l.27,1.86Z"/><path class="cls-16" d="M46.52,23.81,47.15,22c0,.59.05,1.17.08,1.76Z"/><path class="cls-16" d="M49.37,17.74l-1-.11,1.38-1.18c0,.17.07.34.11.51Z"/><path class="cls-3" d="M105.25,192.38l1.4,1.31Z"/><path class="cls-21" d="M52.53,183l1.28-1.36Z"/><path class="cls-20" d="M19,34l.93,1.38-1.38-.49Z"/><path class="cls-12" d="M41.67,107.77l-1,1.36Z"/><path class="cls-17" d="M53.08,66.78,52,65.31Z"/><path class="cls-16" d="M42.6,35.71c.27.44.53.89.8,1.34l-.2,0-.19,0Z"/><path class="cls-22" d="M81.12,44.32l.21,1.34Z"/><path class="cls-11" d="M46.52,23.81l.71-.07c-.2.31-.41.62-.62.93Z"/><path class="cls-7" d="M50.63,40.44l-.71.73-.56-.68Z"/><path class="cls-11" d="M49.9,17c0-.17-.08-.34-.11-.51a2.54,2.54,0,0,1,.1-.37l.8,0Z"/><path class="cls-21" d="M50.63,40.44l-1.27.05-.21-.71,1.56-.13-.08.78Z"/><path class="cls-17" d="M54.63,34.94l1.24-1.2Z"/><path class="cls-21" d="M30.51,193.48l-.88.14-.42-.3.63-.61Z"/><path class="cls-3" d="M27.1,194.37l1.27-.49Z"/><path class="cls-6" d="M98,66.4l-1,1.11Z"/><path class="cls-12" d="M86.62,53.79l1.35.78h-.83Z"/><path class="cls-22" d="M86.62,53.79l.52.78-1.25-1Z"/><path class="cls-22" d="M91.82,52.86l.42.89L91,53.4l0-.52Z"/><path class="cls-12" d="M96.08,51.6v.87l-.81.48Z"/><path class="cls-21" d="M47.53,37.56h.89l.06,1.25C48.16,38.39,47.85,38,47.53,37.56Z"/><path class="cls-23" d="M118.92,146.29l-.28.52-.66-1.39.43-.16Z"/><path class="cls-15" d="M19,79.9h-.45c-.15-.43-.29-.86-.44-1.3l1.09.13C19.13,79.12,19.07,79.51,19,79.9Z"/><path class="cls-3" d="M50.59,186.15l.91-1.28Z"/><path class="cls-23" d="M102.52,187l.79,1.36-.74-.58Z"/><path class="cls-3" d="M102.57,187.82l.74.58a.44.44,0,0,0,.13.33l-.24.5Z"/><path class="cls-3" d="M21.55,191.28l.8.49h0l.13.74a2.09,2.09,0,0,1-.22.2Z"/><path class="cls-19" d="M18.77,89.61l.24,1Z"/><path class="cls-12" d="M46.91,102.94l-.85.59Z"/><path class="cls-20" d="M40,8.34l-.88.84Z"/><path class="cls-16" d="M50.69,16l-.8,0,.82-.84C50.71,15.5,50.7,15.77,50.69,16Z"/><path class="cls-3" d="M56.81,179.5l.29-.58.75-.14.21.23Z"/><path class="cls-21" d="M53.82,181.61l.94-.84Z"/><path class="cls-12" d="M39.51,110.74l-.57,1Z"/><path class="cls-3" d="M25.41,183.19c-.22.38-.43.76-.64,1.14C25,184,25.19,183.57,25.41,183.19Z"/><path class="cls-3" d="M51.5,184.88l.69-1.1Z"/><path class="cls-3" d="M91.37,185.31l.86-.42Z"/><path class="cls-23" d="M128.9,186.44l-1-.78Z"/><path class="cls-3" d="M49.84,186.63l.64-.28c-.19.42-.37.83-.55,1.25l-.21-.21Z"/><path class="cls-17" d="M57.73,32.11l1-.75Z"/><path class="cls-15" d="M13.38,73.9c0-.17,0-.35,0-.52l.9.23-.47.71Z"/><path class="cls-12" d="M98.57,37.46l.56.8Z"/><path class="cls-3" d="M23.21,192.64c.08.23.17.45.25.68l-1.2-.61a2.09,2.09,0,0,0,.22-.2Z"/><path class="cls-22" d="M83.12,38.16l-1,.88Z"/><path class="cls-7" d="M50.63,40.43l.08-.78.51-.27Z"/><path class="cls-12" d="M92.13,40.11l.12.77L91.44,40Z"/><path class="cls-19" d="M23,96.9l.74.9Z"/><path class="cls-12" d="M90.94,52.88l0,.52H90.4l-.42,0Z"/><path class="cls-15" d="M18.35,80.69l-.26.49Z"/><path class="cls-11" d="M38.8,35a1.65,1.65,0,0,1-.07.32l-.27-.22Z"/><path class="cls-21" d="M47.66,27.58h0c-.11-.07-.22-.13-.33-.21A.32.32,0,0,1,47.66,27.58Z"/><path class="cls-5" d="M118,145.42l.66,1.39c.17.7.34,1.4.5,2.1l.31.91.19,1.22.24,1.35c.06.27.11.53.17.8l.21.93.15,1.59-.24,2.59c-1.12-.17-1.51-.6-1.57-2a62.12,62.12,0,0,0-1.34-7.7c-2.37,1.68-4.42,2.92-6.22,4.45-4.28,3.65-9.42,5.49-14.6,7.34-5.73,2-11.76,2.44-17.69,2.87a71.25,71.25,0,0,1-15.9-.85,58.2,58.2,0,0,1-19.76-6.74c-.42-.24-.72-.66-1.12-.94-1.78-1.26-3.36-3.23-5.95-1.57,0-3.87-3.12-5.55-4.76-8.19l-.61.18c0,.66-.12,1.32-.12,2q0,7.77,0,15.53a6,6,0,0,1-.13,1.7c-.62,2.16-2.15,2.48-3.77,1a37.45,37.45,0,0,1-8.94-12.44A70.6,70.6,0,0,1,15,145.17c-.38-1.31-.76-2.43-2.23-2.78.7-4.43,1.38-8.86,2.1-13.28a1.5,1.5,0,0,1,.75-1c0,3.81-.19,7.63,0,11.43a35.64,35.64,0,0,0,4,14.09A15.38,15.38,0,0,0,21,155.45l.59,1.13.7,1a.33.33,0,0,0,.17.27l.71,1a.35.35,0,0,0,.16.29l1.12,1.42,2.68,2.87,1.37,1c.23-8.12.46-15.79.68-23.47l.77-.12,2.6,3.09a.29.29,0,0,0,.15.27L34.08,146l4.07,3.94.93.73c4.11,3.79,9.15,5.86,14.35,7.59,1.42.47,2.88.77,4.33,1.15l1.48.29,1.07.19,1.07.21,1.5.25,1.59.26,2.49.22,1.71.16,4.06.21h6l3.64-.21,1.71-.15,2.58-.32.85-.12,1.2-.22,1-.17,1.62-.27,1.16-.28a47.35,47.35,0,0,0,22.88-11.69C116.19,147,117.09,146.2,118,145.42Z"/><path class="cls-5" d="M120.5,159.61l.61,1.35c.06.54.12,1.08.19,1.62-1.26,1-.32,1.84.3,2.67l.17,1.22.18,1.36c.08.55.15,1.1.22,1.65.09.72.19,1.44.29,2.16,0,.34.09.67.13,1l.24,1.18.24,1.64-.49,0c-.49-.47-1.23-.86-1.42-1.43a17.49,17.49,0,0,1-.62-3.54c-.33-2.85-.57-5.7-.91-8.55a9.52,9.52,0,0,0-.87-2Z"/><path class="cls-21" d="M99.31,182.26l-1.49.09c.3-.39.61-.77.91-1.15Z"/><path class="cls-21" d="M71.65,173.71l-1.74.32Z"/><path class="cls-23" d="M112.36,193.4l-1.73.82Z"/><path class="cls-21" d="M38.69,193.35l-1.35.44C37.63,193.14,37.77,192,38.69,193.35Z"/><path class="cls-21" d="M57.85,178.78l-.75.14,1.35-.83Z"/><path class="cls-21" d="M49.84,186.63l-.12.76-.77.51Z"/><path class="cls-23" d="M109.81,194.32l-.86,0Z"/><path class="cls-23" d="M122.58,175.44l.49,0,.3.9Z"/><path class="cls-21" d="M62.48,176.12l-1.14.51Z"/><path class="cls-21" d="M80,178.29l-.58-1.13Z"/><path class="cls-21" d="M80.82,180c-.16-.38-.33-.76-.5-1.14C80.49,179.25,80.66,179.63,80.82,180Z"/><path class="cls-21" d="M23.21,192.64l-.73-.13c-.05-.25-.09-.49-.13-.74Z"/><path class="cls-23" d="M124.68,181.21c.16.38.32.76.49,1.14Z"/><path class="cls-23" d="M130.23,189.6c-.15.37-.29.75-.44,1.12C129.94,190.35,130.08,190,130.23,189.6Z"/><path class="cls-21" d="M40.38,193.88l-.87-.38Z"/><path class="cls-23" d="M114.5,193.93l-.84-.45Z"/><path class="cls-23" d="M130.14,189h-.35c.06,0,.12-.08.18-.08S130.08,188.94,130.14,189Z"/><path class="cls-4" d="M83.22,126.18l-3.73,5.41-.61.36-3.31,1.22-1.2-.17L69,129.07l-.8-1.33-.49-1.15a.18.18,0,0,0,0-.29,25.25,25.25,0,0,1,3-1.3,9,9,0,0,1,2.22-.12h5.57l.92,0,.87-.07,2.53.64Zm-6,1.33.08.49,1.1-.49-.15-.38c-.34.13-.69.25-.82.72-.32.07-.55.07-.57.14a1.74,1.74,0,0,0,0,.56A1.45,1.45,0,0,0,77.2,127.51Zm-5-.43-.58.38,1.18,1.65.5-.33Z"/><path class="cls-12" d="M63.54,104.29l.55.17c1,4.26.25,8.44-.57,12.62l-.21.58c-.25.64-.49,1.28-.73,1.93q-1.48,2.4-2.95,4.82c.9-2.15,1.91-4.26,2.68-6.46A27.33,27.33,0,0,0,63.54,104.29Z"/><path class="cls-12" d="M86.31,110.75c.24-1.74.47-3.48.71-5.22a47.7,47.7,0,0,0,1.73,13.86l-1.32-2.32a.22.22,0,0,0-.1-.3l-.63-2.63Z"/><path class="cls-6" d="M122.3,100c-1-1.46-2-2.92-3.06-4.37S117,92.55,115.9,91c-.24-.62-.48-1.24-.71-1.86A29.46,29.46,0,0,1,122.3,100Z"/><path class="cls-6" d="M97,80.09l-.48.94c-1.61,0-3.55.86-4.2-1.62l3.58.71Z"/><path class="cls-6" d="M91.37,77.76,91.92,79a12.79,12.79,0,0,1-3-.26c-.66-.21-1.14-1-1.7-1.52l2.88.45Z"/><path class="cls-6" d="M42.84,82.34l1-.72Z"/><path class="cls-6" d="M114.31,88.2l.82.89Z"/><path class="cls-24" d="M43.34,127.67c-.2.2-.4.41-.61.61l-.63,0-3.58-.82-.3-.4.93-1.33H40c.58,0,1.15,0,1.73-.09,1-.09,2.17-.58,3-.24,2.38,1,4.62,2.25,7,3.46l.52-1.66c2.82.47,2.81.46,4.57-1.67a3.62,3.62,0,0,1,1-.62h1l0,.78-3.43,3.45-.89.59-.38.27-7,1.54.39-.89a13.76,13.76,0,0,0-1.71-3.33C45.51,127,44.2,127.54,43.34,127.67Z"/><path class="cls-18" d="M71.38,146.71c-.69-1.32-.15-2.13,1.18-2.23a50.48,50.48,0,0,1,5.9,0c.45,0,1.24.51,1.26.83a2,2,0,0,1-.74,1.53,24.07,24.07,0,0,1-3,1.44l-.87,0L74,148.09Z"/><path class="cls-12" d="M43.34,127.67c.86-.13,2.17-.66,2.49-.31a13.76,13.76,0,0,1,1.71,3.33l-.39.89,7-1.54-.45.69-1.6.88-.16-.07a38.07,38.07,0,0,1-4.39.29,1.74,1.74,0,0,1-1.12-1.29C46.69,128.08,46,127.39,43.34,127.67Z"/><path class="cls-12" d="M54.48,129.77l.89-.59c0,.18-.11.36-.16.54Z"/><path class="cls-18" d="M118.16,72.83a15.64,15.64,0,0,1,8.42,5.33c1.4,1.79,1.16,3.49.66,5.34-.42,1.52-3.27,3.18-5,2.77-2.94-.69-6.16-1.39-6.82-5a16.46,16.46,0,0,1,.26-6.4C115.87,74,117.38,73.45,118.16,72.83Z"/><path class="cls-21" d="M102.93,70.9a5.62,5.62,0,0,1,.38,1.34c0,1.58.86,1.3,1.8.82-.48.42-.92,1-1.47,1.18-.28.07-1.08-.65-1.12-1.07A7.72,7.72,0,0,1,102.93,70.9Z"/><path class="cls-21" d="M101.69,64.89l.72,3c-.39-.72-.77-1.45-1.15-2.17Z"/><path class="cls-21" d="M119.18,69l2.2.67Z"/><path class="cls-21" d="M131.05,78.36c.3.81.59,1.63.89,2.44C131.64,80,131.35,79.17,131.05,78.36Z"/><path class="cls-21" d="M132.1,81.61l.3,1.75Z"/><path class="cls-21" d="M132.41,86.72l-.3,1.75Z"/><path class="cls-21" d="M112.39,69.22l1.31-.35Z"/><path class="cls-21" d="M129.52,75.61l.73.54c0,.25.07.5.11.75Z"/><path class="cls-21" d="M131.53,90.56c-.17.38-.33.77-.49,1.15Z"/><path class="cls-21" d="M122.67,70l1.12.56Z"/><path class="cls-21" d="M111,69.82l0,0c0,.05.1.1.11.16s0,.09-.08.13Z"/><path class="cls-25" d="M78.73,161.19h0Z"/><path class="cls-26" d="M38.62,147.68l1.35.76c-.3.74-.6,1.48-.89,2.22l-.93-.73Z"/><path class="cls-25" d="M68.67,161,67,160.82Z"/><path class="cls-25" d="M84.08,160.83l-1.71.15Z"/><path class="cls-25" d="M59.24,159.69l-1.48-.29Z"/><path class="cls-25" d="M64.47,160.6l-1.59-.26Z"/><path class="cls-25" d="M89.66,160l-1,.17Z"/><path class="cls-25" d="M87.51,160.39l-.85.12Z"/><path class="cls-22" d="M90.78,156.73c-.11,0-.26.15-.35.12s-.1-.22-.14-.34c.12,0,.26-.16.35-.12S90.74,156.61,90.78,156.73Z"/><path class="cls-25" d="M92.44,159.45l-1.16.28Z"/><path class="cls-25" d="M61.38,160.09l-1.07-.21Z"/><path class="cls-12" d="M36.31,124.87l.25-.83.5,1.45-.77-.59Z"/><path class="cls-26" d="M27.12,163.44l-2.68-2.87-1.12-1.42a.35.35,0,0,1-.16-.29l-.71-1a.33.33,0,0,1-.17-.27l-.7-1L21,155.45c-1.06-2.88-2.2-5.74-3.15-8.65a48.6,48.6,0,0,1-1.13-5.12c2.79.13,2,2.86,3.06,4.24-.31.33-1,.82-.89,1,1.5,3.33,3,6.64,4.67,9.9a34,34,0,0,0,2.11,3.25l.68-.08c.25-2,.49-3.95.74-5.92H28c0,2.47,0,4.95-.08,7.42A6.35,6.35,0,0,1,27.12,163.44Z"/><path class="cls-22" d="M27.08,154.05c-.25,2-.49,3.94-.74,5.92l-.68.08a34,34,0,0,1-2.11-3.25c-1.63-3.26-3.17-6.57-4.67-9.9-.08-.16.58-.65.89-1,.32.68.63,1.37.95,2.06l1.64,1.78h0l2.6,2.54,1.26.88.86.85Z"/><path class="cls-17" d="M27.12,163.44a6.35,6.35,0,0,0,.77-2c.11-2.47.07-4.95.08-7.42,0-2.62-.16-5.24,0-7.85.13-2.2.61-4.37.93-6.56l2,.28h0l1.29,2.57c.12.47.23.94.34,1.41l-2.6-3.09-.77.12c-.22,7.68-.45,15.35-.68,23.47Z"/><path class="cls-20" d="M30.92,139.92l-2-.28A17.47,17.47,0,0,1,27.68,137c-.14-.5.19-1.12.31-1.69.45.29,1.1.47,1.31.89C29.93,137.38,30.39,138.67,30.92,139.92Z"/><path class="cls-26" d="M25,152.31l-2.6-2.54Z"/><path class="cls-26" d="M22.36,149.76,20.72,148Z"/><path class="cls-26" d="M27.08,154l-.86-.85Z"/><path class="cls-16" d="M33.5,57.12c1.48.68,3,1.39,4.47,2,.32.13.79-.1,1.19-.16.46,1.12.84,2.28,1.39,3.34a16.91,16.91,0,0,0,1.58,2.12c-.92-.71-1.88-1.39-2.77-2.14-.61-.5-1.13-1.1-1.69-1.66A17.85,17.85,0,0,0,36.12,63c-.59,1.32-1,2.71-1.5,4.06l-.27-.88c.79-2.34,1.58-4.69,2.36-7a17.5,17.5,0,0,0-2.56-.76c-.36-.05-.8.36-1.2.55l-.39,0Z"/><path class="cls-19" d="M34.35,66.17l.27.88,1.1,1.45-.49.31-6,1.11-3.55,1.76-1.47.58c1.33-1,2.6-2.06,4-2.93a13.15,13.15,0,0,1,2.76-1c.29-.44.59-.87.88-1.3l.06-1.23.69-.15L33,66.9Z"/><path class="cls-5" d="M24.18,72.26l1.47-.58,1,3.51-.44.85c-.94,0-2,.26-2.39-1.13-.09-.31-.94-.4-1.44-.59Z"/><path class="cls-10" d="M32.58,65.64l-.69.15q.34-3.45.67-6.9l.39,0C32.83,61.17,32.71,63.4,32.58,65.64Z"/><path class="cls-10" d="M31.83,67c-.29.43-.59.86-.88,1.3C31.24,67.88,31.54,67.45,31.83,67Z"/><path class="cls-18" d="M26.23,76l.44-.85,6.42-1.74.86.44c1.9,1.23,1.43,3.44,2.16,5.16,0,.56,0,1.13,0,1.7l-.84,1.3,0,.84c-1,.58-2,1.08-3,1.74A7,7,0,0,1,26,85.3c-2.39-.69-3.34-4.42-1.77-6.62C24.88,77.78,25.57,76.92,26.23,76Z"/><path class="cls-19" d="M20.38,76.6l.62-1Z"/><path class="cls-4" d="M36.11,79.05c-.73-1.72-.26-3.93-2.16-5.16.43-1.69.85-3.38,1.28-5.08l.49-.31,1.7.15,9.46,4.54L48,68.3l1.55-.07-.17-3c1.57,1.6,2.82,3.66,4.63,4.48,1.66.75,3.92.16,6.16.16-2.12,3-1.91,3.63,1.37,5.15l.67-2.23-1.69.47,1-2.47c2,2.35,2,3,0,5.58-1.63-1.16-2.79-.41-3.74,1.07s-2.1,1.38-3.52.73c-.55-.26-1.6-.38-1.9-.07a1.74,1.74,0,0,1-2.91-.08c-.39-.54.1-1.72.19-2.61a6,6,0,0,1,.11-.61l-3-.78,1,2.7-2.33-.63L46,77.54l-7.66,6.09L36.9,80.87l1.7-3.18-.37-.38Z"/><path class="cls-19" d="M48,68.3l-1.11,4.89-9.46-4.54a5.63,5.63,0,0,1,2,.1c2.3,1,4.55,2.13,7,3.3l.66-4.55.51,0,.42,0Z"/><path class="cls-17" d="M47.56,67.47l-.51,0-4.56-3a13.12,13.12,0,0,0,2.34.84c.49.08,1.05-.28,1.58-.44l.89,0,.69,0c0,.56-.07,1.12-.1,1.68Z"/><path class="cls-4" d="M35.25,82.05l.84-1.3Z"/><path class="cls-19" d="M48,64.92l-.69,0c.11-.43.23-.86.34-1.29l.53,0Z"/><path class="cls-23" d="M52.42,79.93l-1.37.71Z"/><path class="cls-4" d="M47.56,67.47l.33-.87.09.92Z"/><path class="cls-3" d="M67.19,74.45l1.23.06,0,.5L67.16,75Z"/><path class="cls-3" d="M69.83,74.49c.12.05.3.08.34.16s-.09.23-.14.35c-.12,0-.3-.08-.33-.16S69.78,74.61,69.83,74.49Z"/><path class="cls-1" d="M40,125.76h-.81c-.42-2.3-1.52-4.72-1.14-6.88A22.57,22.57,0,0,1,48.15,103.8a14.74,14.74,0,0,1,10.31-2.46c2.32.34,4.2,3.09,4.13,6.22-.1,4-.41,8-2,11.69a27.25,27.25,0,0,1-2.19,3.5l-1.7-.8a25.76,25.76,0,0,0-3.78-2.54C49.8,118,45.13,118,42.68,121.15A37.71,37.71,0,0,0,40,125.76Z"/><path class="cls-18" d="M40,125.76a37.71,37.71,0,0,1,2.72-4.61c2.45-3.12,7.12-3.12,10.21-1.74A25.76,25.76,0,0,1,56.67,122l1.24,1.63c0,.45,0,.9-.08,1.36a3.62,3.62,0,0,0-1,.62c-1.76,2.13-1.75,2.14-4.57,1.67l-.52,1.66c-2.4-1.21-4.64-2.5-7-3.46-.83-.34-2,.15-3,.24C41.11,125.72,40.54,125.73,40,125.76Z"/><path class="cls-12" d="M53.56,99.94l3.11-.38Z"/><path class="cls-24" d="M57.91,123.58,56.67,122l1.7.8Z"/><path class="cls-12" d="M57.52,99.61l1.42.31Z"/><path class="cls-12" d="M60.5,100.51l1.22.86Z"/><path class="cls-12" d="M62.19,101.84l.66.86Z"/><path class="cls-12" d="M58.8,125.73l0-.78.54-.17Z"/><path class="cls-1" d="M65.65,49.47c-.42,0-1,.13-1.24-.09-2.92-2.55-5.3-.79-7.71.88a2.34,2.34,0,0,1-.4.13c-.72-1.85-.07-3.52.73-5.13.67-1.35,1.45-2.64,2.18-4h0L60.93,40h0c1.18-.17,2.37-.29,3.54-.52,2.35-.45,3.15.07,3.32,2.42A10.37,10.37,0,0,1,65.65,49.47Z"/><path class="cls-8" d="M65.65,49.47a10.37,10.37,0,0,0,2.14-7.55c-.17-2.35-1-2.87-3.32-2.42-1.17.23-2.36.35-3.54.52,1.31-1.58,4.13-2.37,5.86-1.52A3.78,3.78,0,0,1,69,42.89a83.23,83.23,0,0,1-2.54,7.94c-.1.31-.57.5-1.26,1.06Z"/><path class="cls-8" d="M59.21,41.3c-.73,1.32-1.51,2.61-2.18,4-.8,1.61-1.45,3.28-.73,5.13V52l-.16.15c-1.69-.45-1.29-1.86-1.23-3A9.22,9.22,0,0,1,59.21,41.3Z"/><path class="cls-5" d="M65,52.05c-1.35,2.18-3.22,2.73-4.24,1.62Z"/><path class="cls-8" d="M60.93,40,59.21,41.3Z"/><path class="cls-8" d="M56.3,52l1.24.76-.45.56-1-1.17Z"/><path class="cls-14" d="M22.28,30.65c.06.26.11.53.17.8.42,1.54.81,3.1,1.29,4.63a6.6,6.6,0,0,1-.06,5.16c-.05.66-.11,1.32-.16,2a9.45,9.45,0,0,0-2.13-.6c-2.76-.11-5.53-.12-8.29-.16-.16-1.82,1.19-1.84,2.39-2,1.8-.2,3.61-.33,5.88-.53l-3-3.57,2.71,1.09a22.92,22.92,0,0,1-.61-4.09C20.49,32.25,20,30.42,22.28,30.65Z"/><path class="cls-13" d="M23.52,43.22c.05-.66.11-1.32.16-2,4,3.44,6.41,8,8.83,12.45l-.93.61c-1.18-1.95-2.24-4-3.57-5.82S25,45,23.52,43.22Z"/><path class="cls-13" d="M46.41,64.93c-.53.16-1.09.52-1.58.44a13.12,13.12,0,0,1-2.34-.84l-.36-.11a16.91,16.91,0,0,1-1.58-2.12c-.55-1.06-.93-2.22-1.39-3.34a1.61,1.61,0,0,0,.33-.12l1.79,0c1.37,1.3,2.81,2.55,4.09,3.94A8.36,8.36,0,0,1,46.41,64.93Z"/><path class="cls-14" d="M40.22,56c1.09-2.22,5.69-3.79,7-2.78A1.85,1.85,0,0,1,48,54.62a1.52,1.52,0,0,1-1.09,1C44.78,55.81,42.69,55.88,40.22,56Z"/><path class="cls-16" d="M41.28,58.8l-1.79,0C40.06,57.71,40.66,57.69,41.28,58.8Z"/><path class="cls-18" d="M92.87,126.6a.15.15,0,0,1,0-.23c.07-.78.13-1.55.2-2.33l1.31-1.72v-.44l.86-.84,2.58-1.72.86-.42,1.28,0,3.43-.42a10.06,10.06,0,0,1,1.19.34,12.87,12.87,0,0,1,7,7v1.31h0l-.86.86h0l-1.36-.15,0-.12c.24-1.62-1-1.73-2-1.83s-2.44-.56-2.64,1.25h0c-.73.64-1.83,1.16-2.09,2-.42,1.26-1.11,1-1.95.88-1.21-.24-2.43-.51-3.64-.76l-1.78-1.25c.11-1.19-.6-1.37-1.55-1.24Z"/><path class="cls-8" d="M111.53,127.06c0-.44,0-.87,0-1.31,2-1.66,1.86-4,1.52-6.14a22.89,22.89,0,0,0-9.23-15,15.83,15.83,0,0,0-11.53-3.28A4.12,4.12,0,0,0,88.82,105a65.24,65.24,0,0,0,.09,9.69c.32,2.4.94,4.94,2.88,6.77L93.05,124c-.07.78-.13,1.55-.2,2.33l-1-1.17-.6-.84-.26-.42-1.78-3.43-.48-1.12A47.7,47.7,0,0,1,87,105.53l.18-.79.29-.88.57-1.2c4.8-4.09,9.77-2.94,14.45,0,7.32,4.52,11.95,10.85,11.6,19.89C114.05,124.29,114,126.43,111.53,127.06Z"/><path class="cls-2" d="M97,129.14c1.21.25,2.43.52,3.64.76.84.16,1.53.38,1.95-.88.26-.8,1.36-1.32,2.09-2-.42,1.24-.83,2.48-1.44,4.3l-6.32-1.82A1.77,1.77,0,0,1,97,129.14Z"/><path class="cls-2" d="M104.68,127.06c.2-1.81,1.62-1.35,2.64-1.25s2.27.21,2,1.83C107.84,127.11,106.38,126.14,104.68,127.06Z"/><path class="cls-8" d="M97,129.14a1.77,1.77,0,0,0-.08.4l-.5.15-1.08-.83-.21-.87.09-.1Z"/><path class="cls-8" d="M109.32,127.76l1.36.15-1,.86Z"/><path class="cls-8" d="M110.68,127.91l.86-.86C111.25,127.34,111,127.62,110.68,127.91Z"/><path class="cls-10" d="M49.82,9.2l2.12,0,.38.44-1.27,1.27L48.1,13.53l-1.28,1.65-1.65-.9-.89-.91-1-1.17c0-.15.06-.31.1-.46l2.53.62c.87-.58,0-4.92,3.3-1.26Z"/><path class="cls-14" d="M43.42,11.74c0,.15-.07.31-.1.46l-2-.88c1.23,2,2.31,3.75,3.38,5.49C43,14.89,41.33,13,39.74,11c-.06-.07.76-1.2,1.19-1.21.62,0,1.26.51,1.9.82C43,11,43.22,11.37,43.42,11.74Z"/><path class="cls-14" d="M51.05,10.88l1.27-1.27L52.91,9h.65l.67.63-.72,2.07-1.13.09C52.59,10.49,51.75,10.79,51.05,10.88Z"/><path class="cls-16" d="M43,33.48c-1.16,1.12-1.73.28-2.25-.68Z"/><path class="cls-14" d="M46.82,15.18l1.28-1.65Z"/><path class="cls-16" d="M42.2,29l.93-1.89Z"/><path class="cls-14" d="M44.28,13.37l.89.91Z"/><path class="cls-16" d="M47.25,18.61c0,.29,0,.57-.07.86C47.2,19.18,47.22,18.9,47.25,18.61Z"/><path class="cls-14" d="M44.45,21.2c.09-.28.19-.57.28-.86C44.64,20.63,44.54,20.92,44.45,21.2Z"/><path class="cls-16" d="M41.21,34.94l1.35.73Z"/><path class="cls-16" d="M39.87,34.73l1,.08Z"/><path class="cls-14" d="M14.27,73.61l-.9-.23L8.73,72.11l-.06-.78L9.58,71h4.29l1.7-1.3L14.13,62.6l.76-.31A20.77,20.77,0,0,1,17,65.92c.79,2.25,1.31,4.6,1.89,6.92.22.88.07,1.59-1.12,1.4h0c-.17-.26-.33-.52-.49-.78l-.47,0-1.3.2Z"/><path class="cls-16" d="M11,65.22l1.59,1.67-.95,1L9.91,66.33Z"/><path class="cls-16" d="M15.57,69.65,13.87,71V69.32Z"/><path class="cls-16" d="M9.58,71l-.91.37Z"/><path class="cls-2" d="M85,49.49c-1.83-2.67-2-5.7-1.56-8.71.2-1.49,2.49-1.91,4.14-1.33,4.6,1.63,6.43,5.37,7.57,9.66.08.32-.47.82-.72,1.23a20.55,20.55,0,0,0-2.31-1.43,6.47,6.47,0,0,0-3-.92A18.2,18.2,0,0,0,85,49.49Z"/><path class="cls-18" d="M85,49.49A18.2,18.2,0,0,1,89.05,48a6.47,6.47,0,0,1,3,.92,20.55,20.55,0,0,1,2.31,1.43c0,1,0,2.08-1.44,2.14l-1.15.38-.88,0-1,.5A5,5,0,0,1,85,49.49Z"/><path class="cls-12" d="M84.52,37.9l2.14,0Z"/><path class="cls-6" d="M109.77,83.77l-5.07-4Z"/><path class="cls-6" d="M102.05,80.24C101,82,99.68,82,98.23,80.29V79.7l.64.45,2.38.21Z"/><path class="cls-9" d="M98.22,79.7v.59L97,80.09l-1.1,0,.27-1.05Z"/><path class="cls-9" d="M101.24,80.36l-2.38-.21Z"/><path class="cls-6" d="M104.51,79.65l-2,.23C103.05,78.73,103.71,78.59,104.51,79.65Z"/><path class="cls-21" d="M123.94,101.25l-.82-.12Z"/><path class="cls-2" d="M101.74,38.82l-3.93-3.5A11,11,0,0,0,96,32.66c-2.2-1.81-4.55-3.44-6.85-5.14,3.3-3.19,7.08-4.07,11.2-2S106.23,34.73,101.74,38.82Zm-.67-9.42.09-.92c-.8-.57-1.54-1.48-2.41-1.62s-2.34,0-2.19,1.53a2.19,2.19,0,0,0,2.57,2.16C99.82,30.47,100.43,29.81,101.07,29.4Z"/><path class="cls-21" d="M100.37,63.6l.83-1.18.41,1.22Z"/><path class="cls-21" d="M91.14,68.37l1.59-.31Z"/><path class="cls-9" d="M91.37,77.76l-1.32-.12.82-.61Z"/><path class="cls-21" d="M46.39,34.46l-.5-.45.36-2.14Z"/><path class="cls-16" d="M58.05,59c.94,1.16,2,1.94,1.91,2.5a3,3,0,0,1-1.82,2c-1.48.28-1.94-1.09-1.82-2.25C56.38,60.6,57.2,60,58.05,59Z"/><path class="cls-4" d="M48.52,37.46c-.28-2.42-.57-4.85-.85-7.28a13.8,13.8,0,0,0,1.41.66,7.39,7.39,0,0,0,1.16.19l1.71.42-2.16,1.9c2,1.8,2.83-1.9,4.9-1l-.6-2.19.43-1.72,1.86.71.45-.3a10.43,10.43,0,0,0-1-1.82c-.08-.1-.84.36-1.29.57l-1.29-.89c1.53-.26,3.06-.56,4.6-.74a3.83,3.83,0,0,1,1.39.34l1.33.84h0a20.83,20.83,0,0,1-2.09,2.65c-2.85,2.64-5.77,5.18-8.67,7.76l.35.62Zm9.17-9.74c.11.06.26.17.34.14s.11-.22.16-.33c-.11-.06-.26-.17-.34-.14S57.74,27.61,57.69,27.72Z"/><path class="cls-18" d="M53.22,26.73l1.29.89c0,.28,0,.56,0,.84-.14.58-.29,1.15-.43,1.72L52,31.45,50.24,31c-.34-.62-.67-1.25-1.28-2.39Z"/><path class="cls-8" d="M60.54,27.17l-1.33-.84.49,0Z"/><path class="cls-15" d="M15.47,73.63l1.3-.2.47,0c.16.26.32.52.49.78Z"/><path class="cls-16" d="M54.23,9.6,53.56,9l.94-.19Z"/><path class="cls-23" d="M122.83,173.83l-.24-1.18Z"/><path class="cls-23" d="M119.88,152.39l-.24-1.35Z"/><path class="cls-23" d="M120.26,154.12l-.21-.93Z"/><path class="cls-23" d="M119.45,149.82l-.31-.91Z"/><path class="cls-23" d="M121.6,165.25c-.62-.83-1.56-1.62-.3-2.67Z"/><path class="cls-23" d="M122,167.83l-.18-1.36Z"/><path class="cls-16" d="M52.91,9l-.59.63-.38-.44Z"/><path class="cls-3" d="M38.62,147.68l-.47,2.25L34.08,146l.69-.5h1.74l.83.44,1.26,1.7Z"/><path class="cls-26" d="M36.51,145.5H34.77l-2.08-1.32a.29.29,0,0,1-.15-.27c-.11-.47-.22-.94-.34-1.41C34.35,142.48,35.55,143.81,36.51,145.5Z"/><path class="cls-17" d="M32.69,144.17l2.08,1.32-.69.5Z"/><path class="cls-7" d="M23.32,159.15l1.12,1.42Z"/><path class="cls-7" d="M21.58,156.58l.7,1Z"/><path class="cls-7" d="M22.45,157.86l.71,1Z"/><path class="cls-12" d="M89.23,120.51,91,123.94Z"/><path class="cls-8" d="M93.68,126.65c.95-.13,1.66,0,1.55,1.24l-.09.1h-.89l-.43-.39Z"/><path class="cls-12" d="M93.68,126.65l.14,1-.95-1Z"/><path class="cls-12" d="M94.25,128h.89l.21.87Z"/><path class="cls-12" d="M91.27,124.36l.6.84Z"/><path class="cls-1" d="M72.24,127.08l1.1,1.7-.5.33-1.18-1.65Z"/><path class="cls-1" d="M77.2,127.51l1-.38.15.38-1.1.49Z"/><path class="cls-1" d="M77.41,127.85l-.58.7a1.74,1.74,0,0,1,0-.56C76.86,127.92,77.09,127.92,77.41,127.85Z"/><path class="cls-12" d="M87.49,103.86l-.29.88Z"/><path class="cls-16" d="M48.91,144.59l-.39,0a4.84,4.84,0,0,0-1.14.49c-1.24,1-2.35.61-3.49-.2a3.26,3.26,0,0,1-1.19-4.16,4.24,4.24,0,0,1,2.84-2.1C48.8,138.25,50.11,140.72,48.91,144.59Z"/><path class="cls-20" d="M48.91,144.59c1.2-3.87-.11-6.34-3.37-5.92a4.24,4.24,0,0,0-2.84,2.1,3.26,3.26,0,0,0,1.19,4.16c1.14.81,2.25,1.17,3.49.2a4.84,4.84,0,0,1,1.14-.49c-.52.83-.86,2.1-1.6,2.42-1.37.57-2.7-.08-3.77-1.24A7.83,7.83,0,0,1,41.34,139a1.74,1.74,0,0,1,.5-.92c.77-.73,5.64-.33,6.69.5a4.21,4.21,0,0,1,1.21,5.5C49.6,144.32,49.19,144.42,48.91,144.59Z"/><path class="cls-12" d="M40.76,129.89l-.3-.75,1.64-.82.63,0c-.08.62-.17,1.23-.28,2Z"/><path class="cls-26" d="M38.6,147.64l-1.26-1.7Z"/><path class="cls-8" d="M42.1,128.32l-1.64.82-1.94-1.64Z"/><path class="cls-20" d="M42.13,64.42l.36.11,4.56,3c-.22,1.53-.44,3.06-.66,4.55-2.44-1.17-4.69-2.3-7-3.3a5.63,5.63,0,0,0-2-.1l-1.7-.15-1.1-1.45c.49-1.35.91-2.74,1.5-4.06a17.85,17.85,0,0,1,1.55-2.37c.56.56,1.08,1.16,1.69,1.66C40.25,63,41.21,63.71,42.13,64.42Z"/><path class="cls-13" d="M32.58,65.64c.13-2.24.25-4.47.37-6.71.4-.19.84-.6,1.2-.55a17.5,17.5,0,0,1,2.56.76c-.78,2.34-1.57,4.69-2.36,7L33,66.9Z"/><path class="cls-4" d="M33.09,73.45l-6.42,1.74-1-3.51,3.55-1.76c0,.57-.09,1.14-.17,2C31.67,69.86,32.14,72.18,33.09,73.45Z"/><path class="cls-2" d="M33.09,73.45c-1-1.27-1.42-3.59-4.06-1.48.08-.91.13-1.48.17-2l6-1.11c-.43,1.7-.85,3.39-1.28,5.08Z"/><path class="cls-1" d="M91.79,121.48c-1.94-1.83-2.56-4.37-2.88-6.77a65.24,65.24,0,0,1-.09-9.69,4.12,4.12,0,0,1,3.48-3.68,15.83,15.83,0,0,1,11.53,3.28,22.89,22.89,0,0,1,9.23,15c.34,2.13.49,4.48-1.52,6.14a12.87,12.87,0,0,0-7-7,10.06,10.06,0,0,0-1.19-.34c-1.22-.47-2.46-1.14-3.43.42l-1.28,0-.86.42L95.23,121l-.86.84c0,.15,0,.29,0,.44L92,121Z"/><path class="cls-4" d="M91.79,121.48l.2-.5,2.37,1.34L93.05,124Z"/><path class="cls-4" d="M100,118.88c1-1.56,2.21-.89,3.43-.42Z"/><path class="cls-4" d="M94.37,121.88l.86-.84Z"/><path class="cls-4" d="M97.81,119.32l.86-.42Z"/><path class="cls-16" d="M17.24,73.46l-.47,0Z"/><path class="cls-18" d="M101.07,29.4c-.64.41-1.25,1.07-1.94,1.15a2.19,2.19,0,0,1-2.57-2.16c-.15-1.57,1.34-1.67,2.19-1.53s1.61,1.05,2.41,1.62Z"/><path class="cls-5" d="M52,31.45l2.14-1.27.6,2.19c-2.07-.92-2.9,2.78-4.9,1Z"/><path class="cls-2" d="M54.52,28.46c0-.28,0-.56,0-.84.45-.21,1.21-.67,1.29-.57a10.43,10.43,0,0,1,1,1.82l-.45.3Z"/><path class="cls-2" d="M57.69,27.72c.05-.11.07-.3.16-.33s.23.08.34.14c0,.11-.07.3-.16.33S57.8,27.78,57.69,27.72Z"/></svg>